<svg xmlns="http://www.w3.org/2000/svg" width="500" zoomAndPan="magnify" viewBox="0 0 375 374.999991" height="500"
    preserveAspectRatio="xMidYMid meet" version="1.0">
    <defs>
        <g />
        <clipPath id="cda3b13134">
            <path d="M 149 102.421875 L 224 102.421875 L 224 204 L 149 204 Z M 149 102.421875 " />
        </clipPath>
    </defs>
    <rect x="-37.5" width="450" fill="#ffffff" y="-37.499999" height="449.999989"
        fill-opacity="1" />
    <rect x="-37.5" width="450" fill="#000000" y="-37.499999" height="449.999989"
        fill-opacity="1" />
    <g clip-path="url(#cda3b13134)">
        <path fill="#3276fc"
            d="M 160.117188 192.636719 C 162.039062 193.078125 163.984375 193.304688 165.957031 193.320312 C 166.839844 193.320312 167.722656 193.277344 168.59375 193.207031 C 165.582031 191.164062 163 188.671875 160.847656 185.734375 L 160.214844 178.59375 L 159.386719 178.59375 C 159.070312 178.59375 158.769531 178.53125 158.480469 178.410156 C 158.1875 178.289062 157.929688 178.117188 157.707031 177.894531 C 157.484375 177.671875 157.316406 177.414062 157.195312 177.121094 C 157.074219 176.828125 157.015625 176.523438 157.015625 176.207031 L 157.015625 163.925781 C 157.011719 163.625 157.042969 163.324219 157.101562 163.023438 C 157.160156 162.726562 157.246094 162.4375 157.363281 162.15625 C 157.480469 161.875 157.621094 161.609375 157.789062 161.355469 C 157.957031 161.105469 158.148438 160.871094 158.359375 160.65625 C 158.574219 160.441406 158.808594 160.25 159.058594 160.082031 C 159.308594 159.910156 159.574219 159.769531 159.855469 159.652344 C 160.132812 159.539062 160.421875 159.449219 160.71875 159.390625 C 161.015625 159.332031 161.316406 159.300781 161.617188 159.300781 L 163.722656 159.300781 C 163.921875 159.304688 164.105469 159.246094 164.265625 159.125 C 164.425781 159.007812 164.535156 158.851562 164.597656 158.660156 C 164.65625 158.46875 164.652344 158.277344 164.582031 158.089844 C 164.515625 157.898438 164.402344 157.75 164.234375 157.636719 C 163.417969 157.113281 162.773438 156.425781 162.308594 155.574219 C 161.84375 154.71875 161.609375 153.804688 161.609375 152.832031 L 161.609375 151.867188 C 161.609375 151.472656 161.652344 151.078125 161.734375 150.6875 C 161.8125 150.300781 161.9375 149.921875 162.097656 149.558594 C 162.257812 149.195312 162.453125 148.851562 162.683594 148.53125 C 162.917969 148.207031 163.179688 147.914062 163.472656 147.644531 C 163.765625 147.378906 164.082031 147.144531 164.425781 146.945312 C 164.765625 146.742188 165.125 146.582031 165.503906 146.457031 C 165.878906 146.332031 166.261719 146.246094 166.65625 146.203125 C 167.050781 146.160156 167.445312 146.15625 167.835938 146.195312 C 170.789062 146.476562 172.949219 149.128906 172.949219 152.109375 L 172.949219 152.84375 C 172.949219 153.816406 172.714844 154.730469 172.25 155.585938 C 171.785156 156.4375 171.140625 157.125 170.324219 157.648438 C 170.160156 157.761719 170.046875 157.914062 169.980469 158.101562 C 169.914062 158.289062 169.914062 158.480469 169.972656 158.671875 C 170.03125 158.863281 170.140625 159.015625 170.300781 159.136719 C 170.460938 159.253906 170.640625 159.3125 170.839844 159.3125 L 172.945312 159.3125 C 173.683594 159.316406 174.378906 159.484375 175.035156 159.824219 C 175.691406 160.164062 176.234375 160.632812 176.664062 161.234375 C 175.835938 161.492188 175.070312 161.875 174.367188 162.378906 C 173.660156 162.882812 173.050781 163.484375 172.535156 164.1875 C 172.019531 164.886719 171.628906 165.648438 171.355469 166.476562 C 171.085938 167.300781 170.949219 168.152344 170.949219 169.019531 L 170.949219 185.925781 C 170.949219 186.316406 171.003906 186.695312 171.117188 187.066406 C 171.230469 187.4375 171.394531 187.785156 171.609375 188.109375 C 171.820312 188.433594 172.078125 188.71875 172.375 188.964844 C 172.675781 189.210938 173 189.410156 173.359375 189.5625 L 173.085938 192.570312 C 174.761719 192.210938 176.402344 191.71875 178 191.101562 L 177.304688 187.546875 L 174.871094 187.546875 C 174.660156 187.550781 174.453125 187.507812 174.253906 187.425781 C 174.054688 187.34375 173.882812 187.226562 173.730469 187.074219 C 173.578125 186.921875 173.460938 186.746094 173.378906 186.546875 C 173.300781 186.347656 173.257812 186.140625 173.257812 185.925781 L 173.257812 169.011719 C 173.257812 168.625 173.296875 168.246094 173.371094 167.871094 C 173.445312 167.496094 173.554688 167.128906 173.703125 166.773438 C 173.847656 166.421875 174.027344 166.085938 174.242188 165.765625 C 174.453125 165.445312 174.695312 165.152344 174.964844 164.882812 C 175.234375 164.609375 175.527344 164.367188 175.84375 164.15625 C 176.160156 163.941406 176.496094 163.761719 176.851562 163.617188 C 177.203125 163.46875 177.566406 163.359375 177.941406 163.285156 C 178.316406 163.207031 178.691406 163.171875 179.074219 163.171875 L 181.734375 163.171875 C 181.988281 163.171875 182.214844 163.097656 182.421875 162.949219 C 182.625 162.800781 182.761719 162.601562 182.835938 162.359375 C 182.914062 162.117188 182.90625 161.878906 182.824219 161.636719 C 182.742188 161.398438 182.59375 161.207031 182.386719 161.066406 C 181.878906 160.742188 181.417969 160.359375 181.003906 159.917969 C 180.59375 159.476562 180.242188 158.988281 179.949219 158.460938 C 179.660156 157.929688 179.441406 157.371094 179.292969 156.785156 C 179.140625 156.199219 179.066406 155.601562 179.066406 154.996094 L 179.066406 153.765625 C 179.066406 153.292969 179.113281 152.824219 179.203125 152.359375 C 179.296875 151.898438 179.433594 151.445312 179.613281 151.011719 C 179.792969 150.574219 180.011719 150.160156 180.273438 149.765625 C 180.535156 149.375 180.832031 149.011719 181.167969 148.675781 C 181.5 148.34375 181.859375 148.042969 182.253906 147.78125 C 182.644531 147.519531 183.058594 147.296875 183.492188 147.117188 C 183.925781 146.9375 184.375 146.800781 184.835938 146.710938 C 185.296875 146.617188 185.761719 146.574219 186.234375 146.574219 C 186.269531 146.574219 186.304688 146.574219 186.34375 146.574219 C 186.378906 146.574219 186.414062 146.574219 186.453125 146.574219 C 186.921875 146.570312 187.390625 146.617188 187.851562 146.710938 C 188.3125 146.800781 188.761719 146.9375 189.195312 147.117188 C 189.628906 147.296875 190.042969 147.519531 190.433594 147.78125 C 190.828125 148.042969 191.1875 148.339844 191.523438 148.675781 C 191.855469 149.007812 192.152344 149.371094 192.414062 149.765625 C 192.675781 150.160156 192.894531 150.574219 193.074219 151.011719 C 193.257812 151.445312 193.390625 151.898438 193.484375 152.359375 C 193.578125 152.824219 193.621094 153.292969 193.621094 153.765625 L 193.621094 154.984375 C 193.621094 155.589844 193.546875 156.1875 193.398438 156.773438 C 193.25 157.359375 193.03125 157.917969 192.742188 158.449219 C 192.449219 158.980469 192.101562 159.464844 191.6875 159.90625 C 191.277344 160.347656 190.816406 160.730469 190.308594 161.054688 C 190.097656 161.199219 189.953125 161.386719 189.867188 161.625 C 189.785156 161.867188 189.78125 162.105469 189.855469 162.347656 C 189.929688 162.589844 190.066406 162.785156 190.269531 162.9375 C 190.472656 163.085938 190.703125 163.160156 190.953125 163.160156 L 193.617188 163.160156 C 194 163.160156 194.378906 163.199219 194.753906 163.273438 C 195.128906 163.347656 195.492188 163.457031 195.84375 163.605469 C 196.195312 163.75 196.53125 163.929688 196.847656 164.144531 C 197.164062 164.355469 197.460938 164.597656 197.730469 164.871094 C 198 165.140625 198.242188 165.4375 198.453125 165.753906 C 198.664062 166.074219 198.84375 166.410156 198.988281 166.765625 C 199.136719 167.117188 199.246094 167.484375 199.320312 167.859375 C 199.394531 168.234375 199.433594 168.617188 199.433594 169 L 199.433594 185.925781 C 199.433594 186.140625 199.394531 186.347656 199.3125 186.546875 C 199.230469 186.746094 199.113281 186.921875 198.960938 187.074219 C 198.808594 187.222656 198.636719 187.339844 198.4375 187.421875 C 198.238281 187.503906 198.035156 187.546875 197.820312 187.542969 L 195.390625 187.542969 L 194.269531 193.21875 C 194.667969 195.484375 193.726562 198.050781 191.785156 199.769531 C 190.140625 201.238281 188.347656 202.496094 186.402344 203.535156 C 189.921875 203.527344 193.371094 203.023438 196.75 202.019531 C 198.246094 201.09375 199.632812 200.027344 200.917969 198.820312 C 202.082031 197.679688 203.382812 196.71875 204.816406 195.9375 C 205.839844 195.386719 206.9375 195.101562 208.101562 195.082031 C 208.574219 195.082031 209.039062 195.140625 209.5 195.261719 C 210.410156 194.523438 211.285156 193.746094 212.121094 192.921875 C 212.960938 192.101562 213.757812 191.246094 214.511719 190.347656 C 215.269531 189.449219 215.984375 188.519531 216.652344 187.554688 C 217.320312 186.589844 217.941406 185.597656 218.515625 184.574219 C 219.089844 183.546875 219.617188 182.5 220.089844 181.425781 C 220.566406 180.351562 220.992188 179.257812 221.363281 178.140625 C 221.734375 177.027344 222.054688 175.898438 222.320312 174.753906 C 222.582031 173.609375 222.792969 172.453125 222.949219 171.289062 C 223.105469 170.125 223.207031 168.953125 223.253906 167.78125 C 223.296875 166.605469 223.289062 165.429688 223.222656 164.257812 C 223.15625 163.082031 223.039062 161.914062 222.863281 160.753906 C 222.6875 159.589844 222.457031 158.441406 222.171875 157.300781 C 221.886719 156.160156 221.550781 155.035156 221.15625 153.925781 C 220.765625 152.820312 220.324219 151.734375 219.832031 150.667969 C 219.339844 149.601562 218.796875 148.5625 218.203125 147.546875 C 217.613281 146.53125 216.972656 145.550781 216.289062 144.597656 L 188.136719 103.417969 C 188.03125 103.265625 187.90625 103.125 187.769531 103 C 187.628906 102.878906 187.480469 102.773438 187.3125 102.683594 C 187.148438 102.597656 186.976562 102.53125 186.796875 102.488281 C 186.617188 102.441406 186.433594 102.421875 186.246094 102.421875 C 186.0625 102.421875 185.878906 102.441406 185.699219 102.488281 C 185.519531 102.53125 185.347656 102.597656 185.179688 102.683594 C 185.015625 102.773438 184.867188 102.878906 184.726562 103 C 184.585938 103.125 184.464844 103.265625 184.359375 103.417969 L 156.207031 144.597656 C 155.570312 145.484375 154.972656 146.394531 154.414062 147.335938 C 153.855469 148.273438 153.339844 149.238281 152.867188 150.222656 C 152.394531 151.207031 151.96875 152.214844 151.582031 153.238281 C 151.199219 154.261719 150.859375 155.296875 150.566406 156.351562 C 150.277344 157.40625 150.03125 158.46875 149.832031 159.546875 C 149.632812 160.621094 149.480469 161.703125 149.375 162.792969 C 149.273438 163.882812 149.21875 164.972656 149.210938 166.066406 C 149.203125 167.160156 149.242188 168.253906 149.332031 169.34375 C 149.421875 170.433594 149.558594 171.515625 149.742188 172.59375 C 149.925781 173.671875 150.15625 174.742188 150.433594 175.796875 C 150.714844 176.855469 151.039062 177.898438 151.40625 178.929688 C 151.777344 179.957031 152.191406 180.96875 152.652344 181.957031 C 153.109375 182.949219 153.613281 183.921875 154.15625 184.867188 C 154.703125 185.816406 155.289062 186.734375 155.914062 187.632812 C 156.539062 188.527344 157.203125 189.390625 157.90625 190.226562 C 158.605469 191.066406 159.34375 191.867188 160.117188 192.636719 Z M 199.742188 151.867188 C 199.742188 151.472656 199.78125 151.078125 199.863281 150.6875 C 199.945312 150.300781 200.066406 149.921875 200.226562 149.558594 C 200.386719 149.195312 200.582031 148.851562 200.816406 148.53125 C 201.046875 148.207031 201.308594 147.914062 201.601562 147.644531 C 201.894531 147.378906 202.214844 147.144531 202.554688 146.945312 C 202.898438 146.742188 203.257812 146.582031 203.632812 146.457031 C 204.007812 146.332031 204.394531 146.246094 204.789062 146.203125 C 205.179688 146.160156 205.574219 146.15625 205.96875 146.195312 C 208.917969 146.476562 211.078125 149.128906 211.078125 152.109375 L 211.078125 152.84375 C 211.078125 153.816406 210.847656 154.730469 210.378906 155.585938 C 209.914062 156.4375 209.273438 157.125 208.453125 157.648438 C 208.289062 157.761719 208.171875 157.910156 208.105469 158.101562 C 208.039062 158.289062 208.035156 158.480469 208.09375 158.671875 C 208.152344 158.863281 208.261719 159.019531 208.425781 159.136719 C 208.585938 159.257812 208.765625 159.316406 208.964844 159.3125 L 211.070312 159.3125 C 211.375 159.3125 211.671875 159.34375 211.96875 159.402344 C 212.265625 159.460938 212.554688 159.550781 212.832031 159.664062 C 213.113281 159.78125 213.378906 159.925781 213.628906 160.09375 C 213.882812 160.261719 214.113281 160.453125 214.328125 160.667969 C 214.539062 160.882812 214.730469 161.117188 214.898438 161.367188 C 215.066406 161.621094 215.210938 161.886719 215.324219 162.167969 C 215.441406 162.449219 215.527344 162.738281 215.585938 163.035156 C 215.644531 163.332031 215.675781 163.632812 215.675781 163.9375 L 215.675781 176.207031 C 215.675781 176.523438 215.617188 176.828125 215.496094 177.121094 C 215.375 177.414062 215.203125 177.671875 214.980469 177.894531 C 214.757812 178.117188 214.5 178.289062 214.210938 178.410156 C 213.921875 178.53125 213.617188 178.59375 213.300781 178.59375 L 212.472656 178.59375 L 211.863281 185.378906 C 210.324219 187.558594 208.542969 189.507812 206.511719 191.234375 C 204.480469 192.960938 202.269531 194.40625 199.875 195.574219 L 199.335938 189.570312 C 199.691406 189.417969 200.019531 189.21875 200.316406 188.972656 C 200.613281 188.726562 200.871094 188.441406 201.085938 188.117188 C 201.300781 187.792969 201.464844 187.445312 201.574219 187.074219 C 201.6875 186.703125 201.742188 186.324219 201.746094 185.933594 L 201.746094 169.011719 C 201.742188 168.140625 201.605469 167.292969 201.335938 166.464844 C 201.0625 165.636719 200.671875 164.875 200.15625 164.175781 C 199.644531 163.476562 199.035156 162.871094 198.328125 162.367188 C 197.621094 161.863281 196.855469 161.480469 196.027344 161.222656 C 196.457031 160.621094 197 160.152344 197.65625 159.8125 C 198.3125 159.472656 199.011719 159.304688 199.746094 159.300781 L 201.855469 159.300781 C 202.054688 159.304688 202.234375 159.246094 202.394531 159.125 C 202.558594 159.007812 202.667969 158.851562 202.726562 158.660156 C 202.785156 158.46875 202.78125 158.277344 202.714844 158.089844 C 202.648438 157.898438 202.53125 157.75 202.367188 157.636719 C 201.546875 157.113281 200.90625 156.425781 200.441406 155.574219 C 199.972656 154.71875 199.742188 153.804688 199.742188 152.832031 Z M 174.640625 126.5625 L 181.921875 126.5625 L 181.921875 119.246094 L 190.574219 119.246094 L 190.574219 126.558594 L 197.847656 126.558594 L 197.847656 135.246094 L 190.574219 135.246094 L 190.574219 142.5625 L 181.921875 142.5625 L 181.921875 135.246094 L 174.640625 135.246094 Z M 174.640625 126.5625 "
            fill-opacity="1" />
    </g>
    <path fill="#9bbdfc"
        d="M 193.78125 111.683594 L 206.074219 129.65625 C 206.808594 130.058594 207.527344 130.484375 208.238281 130.929688 C 208.945312 131.378906 209.636719 131.847656 210.316406 132.335938 C 210.996094 132.828125 211.660156 133.335938 212.308594 133.867188 C 212.957031 134.398438 213.589844 134.949219 214.207031 135.515625 C 214.820312 136.085938 215.417969 136.671875 216 137.277344 C 216.578125 137.882812 217.140625 138.507812 217.679688 139.148438 C 218.222656 139.785156 218.746094 140.441406 219.25 141.113281 C 219.75 141.785156 220.230469 142.472656 220.691406 143.171875 C 221.152344 143.875 221.59375 144.589844 222.011719 145.316406 C 222.429688 146.046875 222.824219 146.785156 223.195312 147.539062 C 223.570312 148.289062 223.917969 149.050781 224.246094 149.824219 C 224.570312 150.597656 224.875 151.382812 225.152344 152.175781 C 225.433594 152.964844 225.6875 153.765625 225.917969 154.574219 C 226.148438 155.382812 226.355469 156.195312 226.535156 157.015625 C 226.71875 157.835938 226.875 158.660156 227.007812 159.488281 C 227.136719 160.320312 227.242188 161.152344 227.324219 161.988281 C 227.40625 162.824219 227.460938 163.664062 227.492188 164.503906 C 227.523438 165.34375 227.527344 166.183594 227.507812 167.023438 C 227.488281 167.863281 227.441406 168.699219 227.371094 169.539062 C 227.296875 170.375 227.203125 171.210938 227.078125 172.039062 C 226.957031 172.871094 226.8125 173.699219 226.640625 174.519531 C 226.46875 175.34375 226.269531 176.160156 226.050781 176.96875 C 225.828125 177.78125 225.582031 178.582031 225.3125 179.378906 C 225.042969 180.171875 224.75 180.960938 224.433594 181.738281 C 224.113281 182.515625 223.773438 183.28125 223.410156 184.039062 C 223.046875 184.792969 222.660156 185.539062 222.25 186.273438 C 221.84375 187.003906 221.410156 187.722656 220.957031 188.429688 C 220.507812 189.136719 220.03125 189.828125 219.539062 190.507812 C 219.042969 191.183594 218.53125 191.847656 217.996094 192.492188 C 217.460938 193.140625 216.90625 193.769531 216.335938 194.378906 C 215.761719 194.992188 215.171875 195.585938 214.5625 196.164062 C 213.953125 196.738281 213.328125 197.296875 212.6875 197.835938 C 212.722656 197.902344 212.765625 197.964844 212.800781 198.035156 C 212.882812 198.21875 212.960938 198.398438 213.023438 198.601562 C 213.394531 198.539062 213.769531 198.507812 214.144531 198.507812 C 214.59375 198.496094 215.035156 198.542969 215.46875 198.65625 C 215.902344 198.769531 216.3125 198.9375 216.699219 199.164062 C 217.085938 199.390625 217.433594 199.667969 217.746094 199.992188 C 218.054688 200.316406 218.316406 200.675781 218.527344 201.074219 C 218.71875 201.441406 218.859375 201.828125 218.957031 202.234375 C 219.488281 202.300781 219.992188 202.445312 220.472656 202.675781 C 220.957031 202.902344 221.390625 203.203125 221.78125 203.570312 C 222.167969 203.9375 222.488281 204.355469 222.742188 204.828125 C 223 205.296875 223.175781 205.796875 223.273438 206.320312 C 225.160156 204.570312 226.917969 202.691406 228.542969 200.6875 C 230.167969 198.6875 231.644531 196.578125 232.972656 194.367188 C 234.300781 192.152344 235.46875 189.859375 236.476562 187.480469 C 237.480469 185.101562 238.316406 182.667969 238.980469 180.167969 C 239.640625 177.671875 240.125 175.144531 240.433594 172.578125 C 240.742188 170.011719 240.867188 167.4375 240.8125 164.855469 C 240.757812 162.273438 240.519531 159.707031 240.105469 157.15625 C 239.6875 154.605469 239.097656 152.097656 238.328125 149.632812 C 237.558594 147.167969 236.621094 144.769531 235.515625 142.4375 C 234.410156 140.105469 233.144531 137.863281 231.722656 135.707031 C 230.300781 133.554688 228.738281 131.515625 227.027344 129.582031 C 225.320312 127.652344 223.484375 125.851562 221.523438 124.179688 C 219.558594 122.511719 217.492188 120.988281 215.316406 119.609375 C 213.136719 118.234375 210.875 117.019531 208.527344 115.964844 C 206.179688 114.90625 203.773438 114.023438 201.300781 113.308594 C 198.828125 112.597656 196.320312 112.0625 193.773438 111.703125 Z M 193.78125 111.683594 "
        fill-opacity="1" />
    <path fill="#9bbdfc"
        d="M 152.75 190.199219 C 151.898438 189.011719 151.113281 187.78125 150.394531 186.511719 C 149.671875 185.238281 149.019531 183.933594 148.4375 182.59375 C 147.855469 181.253906 147.34375 179.882812 146.90625 178.488281 C 146.46875 177.09375 146.101562 175.679688 145.8125 174.246094 C 145.523438 172.8125 145.308594 171.367188 145.171875 169.910156 C 145.035156 168.453125 144.976562 166.996094 144.992188 165.53125 C 145.007812 164.070312 145.101562 162.609375 145.273438 161.160156 C 145.441406 159.707031 145.6875 158.265625 146.011719 156.839844 C 146.332031 155.410156 146.730469 154.007812 147.199219 152.621094 C 147.671875 151.238281 148.210938 149.882812 148.824219 148.554688 C 149.4375 147.226562 150.121094 145.9375 150.867188 144.683594 C 151.617188 143.425781 152.429688 142.214844 153.308594 141.046875 C 154.1875 139.878906 155.121094 138.761719 156.117188 137.695312 C 157.113281 136.625 158.160156 135.613281 159.261719 134.65625 C 160.363281 133.699219 161.511719 132.804688 162.707031 131.96875 C 163.902344 131.132812 165.140625 130.367188 166.417969 129.664062 L 178.710938 111.691406 C 176.925781 111.941406 175.160156 112.28125 173.40625 112.707031 C 171.65625 113.132812 169.933594 113.648438 168.230469 114.246094 C 166.53125 114.84375 164.863281 115.523438 163.230469 116.285156 C 161.597656 117.050781 160.007812 117.890625 158.457031 118.8125 C 156.90625 119.734375 155.40625 120.730469 153.953125 121.800781 C 152.5 122.871094 151.105469 124.011719 149.765625 125.222656 C 148.425781 126.429688 147.148438 127.703125 145.933594 129.039062 C 144.71875 130.375 143.574219 131.769531 142.496094 133.21875 C 141.417969 134.671875 140.414062 136.171875 139.484375 137.71875 C 138.554688 139.269531 137.703125 140.863281 136.929688 142.496094 C 136.15625 144.132812 135.464844 145.800781 134.859375 147.503906 C 134.25 149.207031 133.726562 150.933594 133.285156 152.691406 C 132.847656 154.445312 132.496094 156.21875 132.234375 158.007812 C 131.96875 159.796875 131.792969 161.597656 131.707031 163.402344 C 131.621094 165.210938 131.621094 167.019531 131.710938 168.828125 C 131.804688 170.632812 131.984375 172.433594 132.25 174.222656 C 136.792969 180.394531 144.5625 186.601562 152.75 190.199219 Z M 152.75 190.199219 "
        fill-opacity="1" />
    <path fill="#3276fc"
        d="M 215.484375 206.335938 C 218.261719 202.390625 215.011719 198.519531 209.5 203.4375 C 212.1875 200.222656 210.0625 196.210938 206 198.285156 C 203.257812 199.691406 202.210938 201.738281 198.070312 204.28125 C 188.582031 210.113281 177.304688 207.15625 174.34375 204.203125 C 181.539062 203.46875 185.957031 201.40625 190.039062 197.796875 C 193.328125 194.882812 192.664062 187.675781 180.226562 193.027344 C 160.765625 201.402344 140.328125 190.234375 133.320312 179.625 C 133.601562 180.722656 133.914062 181.8125 134.261719 182.890625 C 134.609375 183.96875 134.988281 185.035156 135.402344 186.089844 C 135.816406 187.144531 136.261719 188.183594 136.738281 189.210938 C 137.214844 190.238281 137.722656 191.25 138.261719 192.246094 C 138.800781 193.238281 139.371094 194.21875 139.972656 195.175781 C 140.570312 196.136719 141.199219 197.078125 141.859375 197.996094 C 142.515625 198.917969 143.203125 199.816406 143.914062 200.695312 C 144.628906 201.574219 145.367188 202.429688 146.132812 203.261719 C 146.898438 204.09375 147.691406 204.898438 148.507812 205.683594 C 149.324219 206.464844 150.160156 207.222656 151.023438 207.953125 C 151.886719 208.683594 152.769531 209.382812 153.675781 210.058594 C 154.582031 210.734375 155.507812 211.382812 156.453125 212 C 157.398438 212.617188 158.363281 213.207031 159.34375 213.761719 C 160.328125 214.320312 161.324219 214.847656 162.339844 215.34375 C 163.355469 215.839844 164.382812 216.300781 165.425781 216.734375 C 166.46875 217.164062 167.523438 217.5625 168.589844 217.929688 C 169.660156 218.296875 170.738281 218.628906 171.824219 218.925781 C 172.914062 219.226562 174.007812 219.492188 175.113281 219.722656 C 176.21875 219.953125 177.328125 220.148438 178.445312 220.308594 C 179.5625 220.472656 180.683594 220.597656 181.808594 220.6875 C 182.929688 220.78125 184.058594 220.835938 185.183594 220.859375 C 186.3125 220.882812 187.441406 220.867188 188.566406 220.820312 C 189.695312 220.769531 190.820312 220.6875 191.941406 220.566406 C 193.0625 220.449219 194.179688 220.296875 195.292969 220.109375 C 196.40625 219.921875 197.511719 219.699219 198.609375 219.441406 C 199.707031 219.183594 200.796875 218.894531 201.878906 218.570312 C 202.957031 218.242188 204.027344 217.886719 205.085938 217.496094 C 206.144531 217.101562 207.191406 216.679688 208.222656 216.222656 C 209.257812 215.765625 210.273438 215.277344 211.277344 214.757812 C 212.277344 214.238281 213.265625 213.6875 214.230469 213.109375 C 215.199219 212.527344 216.148438 211.914062 217.082031 211.277344 C 218.011719 210.636719 218.921875 209.96875 219.8125 209.269531 C 222.34375 207.109375 219.378906 202.445312 215.484375 206.335938 Z M 215.484375 206.335938 "
        fill-opacity="1" />
    <g fill="#3276fc" fill-opacity="1">
        <g transform="translate(76.511528, 257.897678)">
            <g>
                <path
                    d="M 7.125 0.09375 C 6.09375 0.03125 4.867188 0 3.453125 0 L 2.9375 0 L 2.9375 -21.515625 C 3.601562 -21.460938 4.070312 -21.4375 4.34375 -21.4375 L 5.015625 -21.4375 C 5.859375 -21.4375 6.5625 -21.476562 7.125 -21.5625 L 7.125 -12.96875 L 14.703125 -12.96875 L 14.703125 -21.515625 C 15.585938 -21.460938 16.453125 -21.4375 17.296875 -21.4375 C 18.140625 -21.4375 18.671875 -21.476562 18.890625 -21.5625 L 18.890625 0.09375 C 18.367188 0.03125 17.347656 0 15.828125 0 L 14.703125 0 L 14.703125 -9.109375 L 7.125 -9.109375 Z M 7.125 0.09375 " />
            </g>
        </g>
    </g>
    <g fill="#3276fc" fill-opacity="1">
        <g transform="translate(99.175236, 257.897678)">
            <g>
                <path
                    d="M 13.546875 -3.875 C 14.210938 -3.875 14.675781 -3.9375 14.9375 -4.0625 L 15 -4.046875 L 14.84375 0 L 2.765625 0 L 2.765625 -21.546875 C 3.054688 -21.523438 3.378906 -21.507812 3.734375 -21.5 L 4.859375 -21.46875 C 5.617188 -21.445312 6.4375 -21.4375 7.3125 -21.4375 C 9.769531 -21.4375 12.203125 -21.476562 14.609375 -21.5625 C 14.492188 -20.613281 14.4375 -19.347656 14.4375 -17.765625 C 14.4375 -17.597656 14.445312 -17.472656 14.46875 -17.390625 L 14.4375 -17.34375 C 13.875 -17.5 13.078125 -17.578125 12.046875 -17.578125 L 6.984375 -17.578125 L 6.984375 -13.46875 L 10.796875 -13.46875 C 11.972656 -13.46875 12.679688 -13.5 12.921875 -13.5625 L 12.96875 -9.59375 C 12.457031 -9.644531 11.789062 -9.671875 10.96875 -9.671875 L 6.984375 -9.671875 L 6.984375 -3.875 Z M 13.546875 -3.875 " />
            </g>
        </g>
    </g>
    <g fill="#3276fc" fill-opacity="1">
        <g transform="translate(116.394589, 257.897678)">
            <g>
                <path
                    d="M 4.328125 0.125 C 3.410156 0.0390625 2.332031 0 1.09375 0 L -0.171875 0 L 6.828125 -19.640625 C 7.140625 -20.523438 7.296875 -21.039062 7.296875 -21.1875 C 7.296875 -21.332031 7.289062 -21.421875 7.28125 -21.453125 L 7.296875 -21.484375 C 7.992188 -21.453125 8.734375 -21.4375 9.515625 -21.4375 C 10.160156 -21.4375 10.9375 -21.445312 11.84375 -21.46875 L 11.859375 -21.4375 C 11.835938 -21.382812 11.828125 -21.320312 11.828125 -21.25 C 11.828125 -21.050781 11.988281 -20.507812 12.3125 -19.625 L 19.46875 0.046875 C 19.25 0.0351562 18.992188 0.03125 18.703125 0.03125 C 18.703125 0.03125 18.425781 0.0195312 17.875 0 C 17.601562 0 17.359375 0 17.140625 0 L 14.640625 0 L 13.125 -4.640625 L 5.84375 -4.640625 Z M 11.875 -8.515625 L 9.4375 -16 L 7.078125 -8.515625 Z M 11.875 -8.515625 " />
            </g>
        </g>
    </g>
    <g fill="#3276fc" fill-opacity="1">
        <g transform="translate(136.368342, 257.897678)">
            <g>
                <path
                    d="M 5.90625 0 C 4.332031 0 3.285156 0.03125 2.765625 0.09375 L 2.765625 -21.53125 C 3.023438 -21.46875 3.5625 -21.4375 4.375 -21.4375 C 5.1875 -21.4375 6.128906 -21.457031 7.203125 -21.5 L 7.203125 -3.875 L 10.53125 -3.875 C 11.5 -3.875 12.273438 -3.90625 12.859375 -3.96875 C 12.785156 -1.445312 12.75 -0.140625 12.75 -0.046875 L 12.75 0.109375 C 11.695312 0.0351562 9.925781 0 7.4375 0 Z M 5.90625 0 " />
            </g>
        </g>
    </g>
    <g fill="#3276fc" fill-opacity="1">
        <g transform="translate(150.833307, 257.897678)">
            <g>
                <path
                    d="M 10.5 0.09375 C 9.988281 0.03125 8.664062 0 6.53125 0 L 6.015625 0 L 6.015625 -17.828125 L 2.8125 -17.828125 C 1.875 -17.828125 1.316406 -17.773438 1.140625 -17.671875 C 0.972656 -17.578125 0.835938 -17.492188 0.734375 -17.421875 L 0.6875 -17.4375 L 0.6875 -21.5625 L 0.734375 -21.609375 C 1.085938 -21.492188 2.046875 -21.4375 3.609375 -21.4375 L 13.71875 -21.4375 C 14.65625 -21.4375 15.207031 -21.484375 15.375 -21.578125 C 15.550781 -21.671875 15.691406 -21.753906 15.796875 -21.828125 L 15.84375 -21.8125 L 15.84375 -17.6875 L 15.796875 -17.640625 C 15.441406 -17.765625 14.484375 -17.828125 12.921875 -17.828125 L 10.5 -17.828125 Z M 10.5 0.09375 " />
            </g>
        </g>
    </g>
    <g fill="#3276fc" fill-opacity="1">
        <g transform="translate(168.052658, 257.897678)">
            <g>
                <path
                    d="M 7.125 0.09375 C 6.09375 0.03125 4.867188 0 3.453125 0 L 2.9375 0 L 2.9375 -21.515625 C 3.601562 -21.460938 4.070312 -21.4375 4.34375 -21.4375 L 5.015625 -21.4375 C 5.859375 -21.4375 6.5625 -21.476562 7.125 -21.5625 L 7.125 -12.96875 L 14.703125 -12.96875 L 14.703125 -21.515625 C 15.585938 -21.460938 16.453125 -21.4375 17.296875 -21.4375 C 18.140625 -21.4375 18.671875 -21.476562 18.890625 -21.5625 L 18.890625 0.09375 C 18.367188 0.03125 17.347656 0 15.828125 0 L 14.703125 0 L 14.703125 -9.109375 L 7.125 -9.109375 Z M 7.125 0.09375 " />
            </g>
        </g>
    </g>
    <g fill="#3276fc" fill-opacity="1">
        <g transform="translate(190.716371, 257.897678)">
            <g>
                <path
                    d="M 7.265625 0 C 7.410156 -0.414062 7.484375 -1.394531 7.484375 -2.9375 L 7.484375 -7.40625 C 5.617188 -11.5 4.425781 -14.050781 3.90625 -15.0625 C 3.394531 -16.082031 2.960938 -16.890625 2.609375 -17.484375 C 1.492188 -19.367188 0.816406 -20.453125 0.578125 -20.734375 C 0.347656 -21.015625 0.117188 -21.25 -0.109375 -21.4375 L 5.453125 -21.4375 C 5.566406 -21.21875 5.726562 -20.898438 5.9375 -20.484375 L 9.828125 -12.25 C 10.015625 -12.695312 10.226562 -13.203125 10.46875 -13.765625 C 12.8125 -18.796875 14 -21.351562 14.03125 -21.4375 L 19.359375 -21.4375 C 18.804688 -20.988281 18.132812 -20.0625 17.34375 -18.65625 C 17.09375 -18.238281 16.84375 -17.757812 16.59375 -17.21875 L 12.953125 -9.640625 C 12.546875 -8.722656 12.195312 -7.898438 11.90625 -7.171875 L 11.90625 -2.546875 C 11.90625 -1.472656 11.96875 -0.625 12.09375 0 Z M 7.265625 0 " />
            </g>
        </g>
    </g>
    <g fill="#3276fc" fill-opacity="1">
        <g transform="translate(210.62569, 257.897678)">
            <g />
        </g>
    </g>
    <g fill="#3276fc" fill-opacity="1">
        <g transform="translate(222.255725, 257.897678)">
            <g>
                <path
                    d="M 12.375 -21.828125 C 14.382812 -21.828125 16.097656 -21.476562 17.515625 -20.78125 L 17.515625 -15.859375 L 17.484375 -15.828125 C 16.878906 -16.742188 15.613281 -17.351562 13.6875 -17.65625 C 13.113281 -17.757812 12.390625 -17.8125 11.515625 -17.8125 C 10.648438 -17.8125 9.796875 -17.644531 8.953125 -17.3125 C 8.117188 -16.988281 7.429688 -16.523438 6.890625 -15.921875 C 5.847656 -14.742188 5.328125 -13.070312 5.328125 -10.90625 C 5.328125 -8.382812 5.988281 -6.503906 7.3125 -5.265625 C 8.40625 -4.234375 9.859375 -3.71875 11.671875 -3.71875 C 13.710938 -3.71875 15.363281 -4.15625 16.625 -5.03125 C 17.09375 -5.34375 17.488281 -5.726562 17.8125 -6.1875 L 17.859375 -6.15625 L 17.859375 -1.640625 C 16.210938 -0.273438 14 0.40625 11.21875 0.40625 C 7.9375 0.40625 5.367188 -0.632812 3.515625 -2.71875 C 1.734375 -4.707031 0.84375 -7.34375 0.84375 -10.625 C 0.84375 -14.09375 1.816406 -16.828125 3.765625 -18.828125 C 5.742188 -20.828125 8.613281 -21.828125 12.375 -21.828125 Z M 12.375 -21.828125 " />
            </g>
        </g>
    </g>
    <g fill="#3276fc" fill-opacity="1">
        <g transform="translate(242.084501, 257.897678)">
            <g>
                <path
                    d="M 4.328125 0.125 C 3.410156 0.0390625 2.332031 0 1.09375 0 L -0.171875 0 L 6.828125 -19.640625 C 7.140625 -20.523438 7.296875 -21.039062 7.296875 -21.1875 C 7.296875 -21.332031 7.289062 -21.421875 7.28125 -21.453125 L 7.296875 -21.484375 C 7.992188 -21.453125 8.734375 -21.4375 9.515625 -21.4375 C 10.160156 -21.4375 10.9375 -21.445312 11.84375 -21.46875 L 11.859375 -21.4375 C 11.835938 -21.382812 11.828125 -21.320312 11.828125 -21.25 C 11.828125 -21.050781 11.988281 -20.507812 12.3125 -19.625 L 19.46875 0.046875 C 19.25 0.0351562 18.992188 0.03125 18.703125 0.03125 C 18.703125 0.03125 18.425781 0.0195312 17.875 0 C 17.601562 0 17.359375 0 17.140625 0 L 14.640625 0 L 13.125 -4.640625 L 5.84375 -4.640625 Z M 11.875 -8.515625 L 9.4375 -16 L 7.078125 -8.515625 Z M 11.875 -8.515625 " />
            </g>
        </g>
    </g>
    <g fill="#3276fc" fill-opacity="1">
        <g transform="translate(262.058251, 257.897678)">
            <g>
                <path
                    d="M 9.703125 -8.328125 C 9.378906 -8.304688 9.035156 -8.296875 8.671875 -8.296875 C 8.304688 -8.296875 7.765625 -8.320312 7.046875 -8.375 L 7.046875 0 L 2.765625 0 L 2.765625 -21.546875 C 4.273438 -21.734375 6.125 -21.828125 8.3125 -21.828125 C 11.300781 -21.828125 13.523438 -21.273438 14.984375 -20.171875 C 16.453125 -19.078125 17.1875 -17.378906 17.1875 -15.078125 C 17.1875 -13.296875 16.515625 -11.769531 15.171875 -10.5 C 14.734375 -10.09375 14.234375 -9.738281 13.671875 -9.4375 L 16.953125 -2.515625 C 17.597656 -1.085938 18.09375 -0.238281 18.4375 0.03125 L 18.359375 0.109375 C 17.316406 -0.0546875 15.675781 -0.0507812 13.4375 0.125 Z M 8.625 -18.03125 C 8.070312 -18.03125 7.546875 -18.003906 7.046875 -17.953125 L 7.046875 -11.796875 C 7.566406 -11.722656 8.179688 -11.6875 8.890625 -11.6875 C 9.597656 -11.6875 10.191406 -11.742188 10.671875 -11.859375 C 11.160156 -11.984375 11.582031 -12.175781 11.9375 -12.4375 C 12.695312 -13.007812 13.078125 -13.863281 13.078125 -15 C 13.078125 -16.132812 12.679688 -16.9375 11.890625 -17.40625 C 11.148438 -17.820312 10.0625 -18.03125 8.625 -18.03125 Z M 8.625 -18.03125 " />
            </g>
        </g>
    </g>
    <g fill="#3276fc" fill-opacity="1">
        <g transform="translate(281.96757, 257.897678)">
            <g>
                <path
                    d="M 13.546875 -3.875 C 14.210938 -3.875 14.675781 -3.9375 14.9375 -4.0625 L 15 -4.046875 L 14.84375 0 L 2.765625 0 L 2.765625 -21.546875 C 3.054688 -21.523438 3.378906 -21.507812 3.734375 -21.5 L 4.859375 -21.46875 C 5.617188 -21.445312 6.4375 -21.4375 7.3125 -21.4375 C 9.769531 -21.4375 12.203125 -21.476562 14.609375 -21.5625 C 14.492188 -20.613281 14.4375 -19.347656 14.4375 -17.765625 C 14.4375 -17.597656 14.445312 -17.472656 14.46875 -17.390625 L 14.4375 -17.34375 C 13.875 -17.5 13.078125 -17.578125 12.046875 -17.578125 L 6.984375 -17.578125 L 6.984375 -13.46875 L 10.796875 -13.46875 C 11.972656 -13.46875 12.679688 -13.5 12.921875 -13.5625 L 12.96875 -9.59375 C 12.457031 -9.644531 11.789062 -9.671875 10.96875 -9.671875 L 6.984375 -9.671875 L 6.984375 -3.875 Z M 13.546875 -3.875 " />
            </g>
        </g>
    </g>
    <g fill="#9bbdfc" fill-opacity="1">
        <g transform="translate(119.130027, 277.597717)">
            <g>
                <path
                    d="M 8.40625 -7 L 8.40625 0 L 7.703125 0 L 7.703125 -5.59375 L 4.953125 -0.890625 L 4.59375 -0.890625 L 1.84375 -5.5625 L 1.84375 0 L 1.140625 0 L 1.140625 -7 L 1.75 -7 L 4.796875 -1.8125 L 7.796875 -7 Z M 8.40625 -7 " />
            </g>
        </g>
    </g>
    <g fill="#9bbdfc" fill-opacity="1">
        <g transform="translate(132.116255, 277.597717)">
            <g>
                <path
                    d="M 6.09375 -0.640625 L 6.09375 0 L 1.140625 0 L 1.140625 -7 L 5.9375 -7 L 5.9375 -6.359375 L 1.875 -6.359375 L 1.875 -3.875 L 5.5 -3.875 L 5.5 -3.234375 L 1.875 -3.234375 L 1.875 -0.640625 Z M 6.09375 -0.640625 " />
            </g>
        </g>
    </g>
    <g fill="#9bbdfc" fill-opacity="1">
        <g transform="translate(142.243612, 277.597717)">
            <g>
                <path
                    d="M 1.140625 -7 L 3.984375 -7 C 4.722656 -7 5.375 -6.847656 5.9375 -6.546875 C 6.507812 -6.253906 6.953125 -5.84375 7.265625 -5.3125 C 7.578125 -4.78125 7.734375 -4.175781 7.734375 -3.5 C 7.734375 -2.820312 7.578125 -2.21875 7.265625 -1.6875 C 6.953125 -1.15625 6.507812 -0.738281 5.9375 -0.4375 C 5.375 -0.144531 4.722656 0 3.984375 0 L 1.140625 0 Z M 3.953125 -0.640625 C 4.566406 -0.640625 5.101562 -0.757812 5.5625 -1 C 6.019531 -1.25 6.375 -1.585938 6.625 -2.015625 C 6.882812 -2.441406 7.015625 -2.9375 7.015625 -3.5 C 7.015625 -4.0625 6.882812 -4.554688 6.625 -4.984375 C 6.375 -5.410156 6.019531 -5.742188 5.5625 -5.984375 C 5.101562 -6.234375 4.566406 -6.359375 3.953125 -6.359375 L 1.875 -6.359375 L 1.875 -0.640625 Z M 3.953125 -0.640625 " />
            </g>
        </g>
    </g>
    <g fill="#9bbdfc" fill-opacity="1">
        <g transform="translate(153.940343, 277.597717)">
            <g>
                <path d="M 1.140625 -7 L 1.875 -7 L 1.875 0 L 1.140625 0 Z M 1.140625 -7 " />
            </g>
        </g>
    </g>
    <g fill="#9bbdfc" fill-opacity="1">
        <g transform="translate(160.399148, 277.597717)">
            <g>
                <path
                    d="M 4.1875 0.0625 C 3.488281 0.0625 2.859375 -0.0859375 2.296875 -0.390625 C 1.742188 -0.703125 1.304688 -1.128906 0.984375 -1.671875 C 0.671875 -2.210938 0.515625 -2.820312 0.515625 -3.5 C 0.515625 -4.175781 0.671875 -4.785156 0.984375 -5.328125 C 1.304688 -5.867188 1.75 -6.289062 2.3125 -6.59375 C 2.875 -6.90625 3.5 -7.0625 4.1875 -7.0625 C 4.707031 -7.0625 5.1875 -6.972656 5.625 -6.796875 C 6.070312 -6.628906 6.445312 -6.378906 6.75 -6.046875 L 6.28125 -5.5625 C 5.726562 -6.125 5.035156 -6.40625 4.203125 -6.40625 C 3.648438 -6.40625 3.144531 -6.273438 2.6875 -6.015625 C 2.238281 -5.765625 1.882812 -5.414062 1.625 -4.96875 C 1.375 -4.53125 1.25 -4.039062 1.25 -3.5 C 1.25 -2.957031 1.375 -2.460938 1.625 -2.015625 C 1.882812 -1.578125 2.238281 -1.226562 2.6875 -0.96875 C 3.144531 -0.71875 3.648438 -0.59375 4.203125 -0.59375 C 5.046875 -0.59375 5.738281 -0.875 6.28125 -1.4375 L 6.75 -0.96875 C 6.445312 -0.632812 6.070312 -0.378906 5.625 -0.203125 C 5.175781 -0.0234375 4.695312 0.0625 4.1875 0.0625 Z M 4.1875 0.0625 " />
            </g>
        </g>
    </g>
    <g fill="#9bbdfc" fill-opacity="1">
        <g transform="translate(171.026302, 277.597717)">
            <g>
                <path
                    d="M 5.53125 -1.875 L 1.625 -1.875 L 0.796875 0 L 0.015625 0 L 3.21875 -7 L 3.953125 -7 L 7.15625 0 L 6.375 0 Z M 5.265625 -2.46875 L 3.578125 -6.234375 L 1.90625 -2.46875 Z M 5.265625 -2.46875 " />
            </g>
        </g>
    </g>
    <g fill="#9bbdfc" fill-opacity="1">
        <g transform="translate(181.633464, 277.597717)">
            <g>
                <path
                    d="M 1.140625 -7 L 1.875 -7 L 1.875 -0.640625 L 5.796875 -0.640625 L 5.796875 0 L 1.140625 0 Z M 1.140625 -7 " />
            </g>
        </g>
    </g>
    <g fill="#9bbdfc" fill-opacity="1">
        <g transform="translate(190.961131, 277.597717)">
            <g />
        </g>
    </g>
    <g fill="#9bbdfc" fill-opacity="1">
        <g transform="translate(197.02009, 277.597717)">
            <g>
                <path
                    d="M 4.1875 0.0625 C 3.488281 0.0625 2.859375 -0.0859375 2.296875 -0.390625 C 1.742188 -0.703125 1.304688 -1.128906 0.984375 -1.671875 C 0.671875 -2.210938 0.515625 -2.820312 0.515625 -3.5 C 0.515625 -4.175781 0.671875 -4.785156 0.984375 -5.328125 C 1.304688 -5.867188 1.75 -6.289062 2.3125 -6.59375 C 2.875 -6.90625 3.5 -7.0625 4.1875 -7.0625 C 4.707031 -7.0625 5.1875 -6.972656 5.625 -6.796875 C 6.070312 -6.628906 6.445312 -6.378906 6.75 -6.046875 L 6.28125 -5.5625 C 5.726562 -6.125 5.035156 -6.40625 4.203125 -6.40625 C 3.648438 -6.40625 3.144531 -6.273438 2.6875 -6.015625 C 2.238281 -5.765625 1.882812 -5.414062 1.625 -4.96875 C 1.375 -4.53125 1.25 -4.039062 1.25 -3.5 C 1.25 -2.957031 1.375 -2.460938 1.625 -2.015625 C 1.882812 -1.578125 2.238281 -1.226562 2.6875 -0.96875 C 3.144531 -0.71875 3.648438 -0.59375 4.203125 -0.59375 C 5.046875 -0.59375 5.738281 -0.875 6.28125 -1.4375 L 6.75 -0.96875 C 6.445312 -0.632812 6.070312 -0.378906 5.625 -0.203125 C 5.175781 -0.0234375 4.695312 0.0625 4.1875 0.0625 Z M 4.1875 0.0625 " />
            </g>
        </g>
    </g>
    <g fill="#9bbdfc" fill-opacity="1">
        <g transform="translate(207.647245, 277.597717)">
            <g>
                <path
                    d="M 6.09375 -0.640625 L 6.09375 0 L 1.140625 0 L 1.140625 -7 L 5.9375 -7 L 5.9375 -6.359375 L 1.875 -6.359375 L 1.875 -3.875 L 5.5 -3.875 L 5.5 -3.234375 L 1.875 -3.234375 L 1.875 -0.640625 Z M 6.09375 -0.640625 " />
            </g>
        </g>
    </g>
    <g fill="#9bbdfc" fill-opacity="1">
        <g transform="translate(217.774601, 277.597717)">
            <g>
                <path
                    d="M 6.984375 -7 L 6.984375 0 L 6.375 0 L 1.875 -5.6875 L 1.875 0 L 1.140625 0 L 1.140625 -7 L 1.75 -7 L 6.265625 -1.3125 L 6.265625 -7 Z M 6.984375 -7 " />
            </g>
        </g>
    </g>
    <g fill="#9bbdfc" fill-opacity="1">
        <g transform="translate(229.341385, 277.597717)">
            <g>
                <path
                    d="M 2.5 -6.359375 L 0.046875 -6.359375 L 0.046875 -7 L 5.703125 -7 L 5.703125 -6.359375 L 3.234375 -6.359375 L 3.234375 0 L 2.5 0 Z M 2.5 -6.359375 " />
            </g>
        </g>
    </g>
    <g fill="#9bbdfc" fill-opacity="1">
        <g transform="translate(238.519111, 277.597717)">
            <g>
                <path
                    d="M 6.09375 -0.640625 L 6.09375 0 L 1.140625 0 L 1.140625 -7 L 5.9375 -7 L 5.9375 -6.359375 L 1.875 -6.359375 L 1.875 -3.875 L 5.5 -3.875 L 5.5 -3.234375 L 1.875 -3.234375 L 1.875 -0.640625 Z M 6.09375 -0.640625 " />
            </g>
        </g>
    </g>
    <g fill="#9bbdfc" fill-opacity="1">
        <g transform="translate(248.646468, 277.597717)">
            <g>
                <path
                    d="M 5.921875 0 L 4.3125 -2.25 C 4.132812 -2.226562 3.953125 -2.21875 3.765625 -2.21875 L 1.875 -2.21875 L 1.875 0 L 1.140625 0 L 1.140625 -7 L 3.765625 -7 C 4.648438 -7 5.347656 -6.785156 5.859375 -6.359375 C 6.367188 -5.929688 6.625 -5.34375 6.625 -4.59375 C 6.625 -4.050781 6.484375 -3.59375 6.203125 -3.21875 C 5.929688 -2.84375 5.535156 -2.570312 5.015625 -2.40625 L 6.734375 0 Z M 3.734375 -2.84375 C 4.429688 -2.84375 4.960938 -2.992188 5.328125 -3.296875 C 5.691406 -3.609375 5.875 -4.039062 5.875 -4.59375 C 5.875 -5.164062 5.691406 -5.601562 5.328125 -5.90625 C 4.960938 -6.207031 4.429688 -6.359375 3.734375 -6.359375 L 1.875 -6.359375 L 1.875 -2.84375 Z M 3.734375 -2.84375 " />
            </g>
        </g>
    </g>
</svg>