<svg width="122.88" height="104.28" xmlns="http://www.w3.org/2000/svg" data-name="Layer 1">

 <title>public-health</title>
 <g>
  <title>Layer 1</title>
  <path fill="#4484fc" id="svg_1" fill-rule="evenodd" d="m61.11,9.2c4.29,-4.47 7.29,-8.33 13.89,-9.09c12.4,-1.43 23.8,11.27 17.54,23.76c-1.78,3.57 -5.41,7.8 -9.42,12c-4.41,4.56 -9.28,9 -12.7,12.41l-9.31,9.24l-7.69,-7.41c-9.25,-8.91 -24.35,-20.14 -24.85,-34c-0.34,-9.82 7.34,-16.06 16.18,-15.95c7.9,0.11 11.22,4 16.36,9l0,0.04zm29.44,84.49l0.77,0a1.08,1.08 0 0 1 1.08,1.08l0,8.47a1.08,1.08 0 0 1 -1.08,1.08l-24.71,0a1.08,1.08 0 0 1 -1.08,-1.08l0,-8.51a1.08,1.08 0 0 1 1.08,-1.08c7.24,0 17,-0.57 23.94,0l0,0.04zm-0.83,-2.18l-23.1,0a1.07,1.07 0 0 1 -1,-1.12c0.09,-2 0.27,-3.93 0.47,-5.93c0.2,-1.67 0.37,-3.13 0.59,-4.4a17.2,17.2 0 0 1 0.93,-3.52l0,0a11.77,11.77 0 0 1 1.81,-3.07a22.2,22.2 0 0 1 3.11,-3.12c0.83,-0.69 1.57,-1.28 2.45,-1.9l0.88,-0.53l3.45,-1.92a58.72,58.72 0 0 0 6.14,-3.53a58.73,58.73 0 0 0 7.11,-5.94c1.77,-1.53 4.27,-3.53 5.84,-5.16a15.15,15.15 0 0 1 3.16,-2.9a5.2,5.2 0 0 1 3.2,-1l0,0a2.5,2.5 0 0 1 0.75,0.19a2.57,2.57 0 0 1 0.57,0.35l0.09,0.09a2.27,2.27 0 0 1 0.49,0.65a3.33,3.33 0 0 1 0.26,0.67l0,0a4.53,4.53 0 0 1 -0.3,2.71a7.27,7.27 0 0 1 -1.62,2.45l-14.71,16.42a1.06,1.06 0 0 0 0.86,1.77a1.08,1.08 0 0 0 0.69,-0.3q7.26,-8.18 14.62,-16.3a10.44,10.44 0 0 0 1,-1.11a9.12,9.12 0 0 0 0.75,-1.12c2.56,-4.07 6.34,-14.9 8.45,-19.93l0.2,-0.31a6.54,6.54 0 0 1 1.31,-1.09l0.06,0a3.84,3.84 0 0 1 1.55,-0.54l0,0a2.4,2.4 0 0 1 0.76,0a2.48,2.48 0 0 1 0.64,0.24l0.11,0.06a2.66,2.66 0 0 1 0.71,0.63a4.23,4.23 0 0 1 0.44,0.85a9.23,9.23 0 0 1 0.36,4.15a26.24,26.24 0 0 1 -1.29,5.37c-1.33,4.55 -2.62,9.14 -3.86,13.73a37.71,37.71 0 0 1 -2.43,7.26a34.86,34.86 0 0 1 -5.22,7.36c-2.35,2.7 -4.66,5.13 -6.91,7.38s-4.48,4.36 -6.64,6.4l-5.85,5.62a1.08,1.08 0 0 1 -0.83,0.39l-0.05,0zm-33.51,0l-23.05,0a1.08,1.08 0 0 1 -0.83,-0.39l-2.8,-2.73l-3.09,-2.93c-2.2,-2.08 -4.44,-4.2 -6.6,-6.36l0,0c-2.25,-2.24 -4.54,-4.66 -6.87,-7.34a35,35 0 0 1 -5.28,-7.37a37.74,37.74 0 0 1 -2.42,-7.26c-1.27,-4.61 -2.53,-9.24 -3.9,-13.76a26,26 0 0 1 -1.29,-5.37a9.11,9.11 0 0 1 0.34,-4.14a3.85,3.85 0 0 1 0.44,-0.86a2.63,2.63 0 0 1 0.68,-0.69l0.12,-0.06a2.23,2.23 0 0 1 0.64,-0.25a2.38,2.38 0 0 1 0.76,0l0,0a3.74,3.74 0 0 1 1.55,0.54l0.07,0a6.43,6.43 0 0 1 1.32,1.12l0.2,0.32c2.1,5 5.93,15.94 8.46,19.93a7.63,7.63 0 0 0 0.76,1.09l0,0a9.57,9.57 0 0 0 1,1.06c5,5 9.72,11.1 14.63,16.3a1.08,1.08 0 0 0 1.45,0a1,1 0 0 0 0.36,-0.74a1.05,1.05 0 0 0 -0.26,-0.77l-14.72,-16.27a7.12,7.12 0 0 1 -1.68,-2.37a4.38,4.38 0 0 1 -0.3,-2.71l0,0a2.83,2.83 0 0 1 0.26,-0.67a2.19,2.19 0 0 1 0.49,-0.66a2.58,2.58 0 0 1 0.66,-0.43a2.77,2.77 0 0 1 0.74,-0.19l0.06,0a5.2,5.2 0 0 1 3.2,1a14.89,14.89 0 0 1 3.15,2.9c1.69,1.77 4,3.47 5.84,5.19a60.32,60.32 0 0 0 7.11,5.94a59.77,59.77 0 0 0 6.15,3.42l3.44,1.86l0.87,0.54c0.88,0.62 1.63,1.22 2.45,1.9a21.79,21.79 0 0 1 3.12,3.12a11.73,11.73 0 0 1 1.8,3.07l0,0a17.87,17.87 0 0 1 0.93,3.52c0.21,1.27 0.39,2.73 0.58,4.4c0.21,2 0.37,3.92 0.48,5.92a1.07,1.07 0 0 1 -1,1.13l-0.02,0.05zm-24.09,2.16c6.87,0.61 16.92,0 24.14,0a1.08,1.08 0 0 1 1.08,1.08l0,8.47a1.08,1.08 0 0 1 -1.08,1.08l-24.71,0a1.07,1.07 0 0 1 -1.07,-1.08l0,-8.49a1.07,1.07 0 0 1 1.07,-1.08l0.57,0l0,0.02zm26.88,-76.15l4.79,0a1.63,1.63 0 0 1 1.63,1.62l0,5.21l5.21,0a1.63,1.63 0 0 1 1.66,1.65l0,4.78a1.63,1.63 0 0 1 -1.62,1.63l-5.21,0c0,1.69 0,3.38 0,5.07a1.64,1.64 0 0 1 -1.63,1.63l-4.83,0a1.63,1.63 0 0 1 -1.62,-1.63l0,-5.09l-5.17,0a1.64,1.64 0 0 1 -1.63,-1.63l0,-4.76a1.63,1.63 0 0 1 1.63,-1.62l5.21,0l0,-5.24a1.63,1.63 0 0 1 1.58,-1.62z" class="cls-1"/>
 </g>
</svg>