<?xml version="1.0" encoding="utf-8"?>
<svg viewBox="0 0 375 374.999991" xmlns="http://www.w3.org/2000/svg" xmlns:bx="https://boxy-svg.com">
  <defs>
    <clipPath id="d4f653e37b">
      <path d="M 149 102.421875 L 224 102.421875 L 224 204 L 149 204 Z M 149 102.421875 "/>
    </clipPath>
  </defs>
  <g clip-path="url(#d4f653e37b)">
    <path fill="#3276fc" d="M 160.117 192.641 C 162.039 193.078 163.984 193.305 165.957 193.32 C 166.84 193.32 167.723 193.277 168.594 193.207 C 165.582 191.164 163 188.672 160.848 185.734 L 160.215 178.594 C 160.215 178.594 157.93 178.117 157.707 177.895 C 157.484 177.672 157.316 177.414 157.195 177.121 C 157.074 176.828 157.016 176.523 157.016 176.207 L 157.016 163.926 C 157.012 163.625 157.043 163.324 157.102 163.023 C 157.16 162.727 157.246 162.438 157.363 162.156 C 157.48 161.875 157.621 161.609 157.789 161.355 C 157.957 161.105 158.148 160.871 158.359 160.656 C 158.574 160.441 158.809 160.25 159.059 160.082 C 159.309 159.91 159.574 159.77 159.855 159.652 C 160.133 159.539 160.422 159.449 160.719 159.391 C 161.016 159.332 161.316 159.301 161.617 159.301 L 163.723 159.301 C 163.922 159.305 164.105 159.246 164.266 159.125 C 164.426 159.008 164.535 158.852 164.598 158.66 C 164.656 158.469 164.652 158.277 164.582 158.09 C 164.516 157.898 164.402 157.75 164.234 157.637 C 163.418 157.113 162.773 156.426 162.309 155.574 C 161.844 154.719 161.609 153.805 161.609 152.832 L 161.609 151.867 C 161.609 151.473 161.652 151.078 161.734 150.688 C 161.813 150.301 161.938 149.922 162.098 149.559 C 162.258 149.195 162.453 148.852 162.684 148.531 C 162.918 148.207 163.18 147.914 163.473 147.645 C 163.766 147.379 164.082 147.145 164.426 146.945 C 164.766 146.742 165.125 146.582 165.504 146.457 C 165.879 146.332 166.262 146.246 166.656 146.203 C 167.051 146.16 167.445 146.156 167.836 146.195 C 170.789 146.477 172.949 149.129 172.949 152.109 L 172.949 152.844 C 172.949 153.816 172.715 154.73 172.25 155.586 C 171.785 156.438 171.141 157.125 170.324 157.648 C 170.16 157.762 170.047 157.914 169.98 158.102 C 169.914 158.289 169.914 158.48 169.973 158.672 C 170.031 158.863 170.141 159.016 170.301 159.137 C 170.461 159.254 170.641 159.313 170.84 159.313 L 172.945 159.313 C 173.684 159.316 174.379 159.484 175.035 159.824 C 175.691 160.164 176.234 160.633 176.664 161.234 C 175.836 161.492 175.07 161.875 174.367 162.379 C 173.66 162.883 173.051 163.484 172.535 164.188 C 172.02 164.887 171.629 165.648 171.355 166.477 C 171.086 167.301 170.949 168.152 170.949 169.02 L 170.949 185.926 C 170.949 186.316 171.004 186.695 171.117 187.066 C 171.23 187.438 171.395 187.785 171.609 188.109 C 171.82 188.434 172.078 188.719 172.375 188.965 C 172.676 189.211 173 189.41 173.359 189.563 L 173.086 192.57 C 174.762 192.211 176.402 191.719 178 191.102 L 177.305 187.547 L 174.871 187.547 C 174.66 187.551 174.453 187.508 174.254 187.426 C 174.055 187.344 173.883 187.227 173.73 187.074 C 173.578 186.922 173.461 186.746 173.379 186.547 C 173.301 186.348 173.258 186.141 173.258 185.926 L 173.258 169.012 C 173.258 168.625 173.297 168.246 173.371 167.871 C 173.445 167.496 173.555 167.129 173.703 166.773 C 173.848 166.422 174.027 166.086 174.242 165.766 C 174.453 165.445 174.695 165.152 174.965 164.883 C 175.234 164.609 175.527 164.367 175.844 164.156 C 176.16 163.941 176.496 163.762 176.852 163.617 C 177.203 163.469 177.566 163.359 177.941 163.285 C 178.316 163.207 178.691 163.172 179.074 163.172 L 181.734 163.172 C 181.988 163.172 182.215 163.098 182.422 162.949 C 182.625 162.801 182.762 162.602 182.836 162.359 C 182.914 162.117 182.906 161.879 182.824 161.637 C 182.742 161.398 182.594 161.207 182.387 161.066 C 181.879 160.742 181.418 160.359 181.004 159.918 C 180.594 159.477 180.242 158.988 179.949 158.461 C 179.66 157.93 179.441 157.371 179.293 156.785 C 179.141 156.199 179.066 155.602 179.066 154.996 L 179.066 153.766 C 179.066 153.293 179.113 152.824 179.203 152.359 C 179.297 151.898 179.434 151.445 179.613 151.012 C 179.793 150.574 180.012 150.16 180.273 149.766 C 180.535 149.375 180.832 149.012 181.168 148.676 C 181.5 148.344 181.859 148.043 182.254 147.781 C 182.645 147.52 183.059 147.297 183.492 147.117 C 183.926 146.938 184.375 146.801 184.836 146.711 C 185.297 146.617 185.762 146.574 186.234 146.574 C 186.27 146.574 186.305 146.574 186.344 146.574 C 186.379 146.574 186.414 146.574 186.453 146.574 C 186.922 146.57 187.391 146.617 187.852 146.711 C 188.313 146.801 188.762 146.938 189.195 147.117 C 189.629 147.297 190.043 147.52 190.434 147.781 C 190.828 148.043 191.188 148.34 191.523 148.676 C 191.855 149.008 192.152 149.371 192.414 149.766 C 192.676 150.16 192.895 150.574 193.074 151.012 C 193.258 151.445 193.391 151.898 193.484 152.359 C 193.578 152.824 193.621 153.293 193.621 153.766 L 193.621 154.984 C 193.621 155.59 193.547 156.188 193.398 156.773 C 193.25 157.359 193.031 157.918 192.742 158.449 C 192.449 158.98 192.102 159.465 191.688 159.906 C 191.277 160.348 190.816 160.73 190.309 161.055 C 190.098 161.199 189.953 161.387 189.867 161.625 C 189.785 161.867 189.781 162.105 189.855 162.348 C 189.93 162.59 190.066 162.785 190.27 162.938 C 190.473 163.086 190.703 163.16 190.953 163.16 L 193.617 163.16 C 194 163.16 194.379 163.199 194.754 163.273 C 195.129 163.348 195.492 163.457 195.844 163.605 C 196.195 163.75 196.531 163.93 196.848 164.145 C 197.164 164.355 197.461 164.598 197.73 164.871 C 198 165.141 198.242 165.438 198.453 165.754 C 198.664 166.074 198.844 166.41 198.988 166.766 C 199.137 167.117 199.246 167.484 199.32 167.859 C 199.395 168.234 199.434 168.617 199.434 169 L 199.434 185.926 C 199.434 186.141 199.395 186.348 199.313 186.547 C 199.23 186.746 199.113 186.922 198.961 187.074 C 198.809 187.223 198.637 187.34 198.438 187.422 C 198.238 187.504 198.035 187.547 197.82 187.543 L 195.391 187.543 L 194.27 193.219 C 194.668 195.484 193.727 198.051 191.785 199.77 C 190.141 201.238 188.348 202.496 186.402 203.535 C 189.922 203.527 193.371 203.023 196.75 202.02 C 198.246 201.094 199.633 200.027 200.918 198.82 C 202.082 197.68 203.383 196.719 204.816 195.938 C 205.84 195.387 206.938 195.102 208.102 195.082 C 208.574 195.082 209.039 195.141 209.5 195.262 C 210.41 194.523 211.285 193.746 212.121 192.926 C 212.961 192.102 213.758 191.246 214.512 190.348 C 215.27 189.449 215.984 188.52 216.652 187.555 C 217.32 186.59 217.941 185.598 218.516 184.574 C 219.09 183.547 219.617 182.5 220.09 181.426 C 220.566 180.352 220.992 179.258 221.363 178.141 C 221.734 177.027 222.055 175.898 222.32 174.754 C 222.582 173.609 222.793 172.453 222.949 171.289 C 223.105 170.125 223.207 168.953 223.254 167.781 C 223.297 166.605 223.289 165.43 223.223 164.258 C 223.156 163.082 223.039 161.914 222.863 160.754 C 222.688 159.59 222.457 158.441 222.172 157.301 C 221.887 156.16 221.551 155.035 221.156 153.926 C 220.766 152.82 220.324 151.734 219.832 150.668 C 219.34 149.602 218.797 148.563 218.203 147.547 C 217.613 146.531 216.973 145.551 216.289 144.598 L 188.137 103.418 C 188.031 103.266 187.906 103.125 187.77 103 C 187.629 102.879 187.48 102.773 187.313 102.684 C 187.148 102.598 186.977 102.531 186.797 102.488 C 186.617 102.441 186.434 102.422 186.246 102.422 C 186.063 102.422 185.879 102.441 185.699 102.488 C 185.52 102.531 185.348 102.598 185.18 102.684 C 185.016 102.773 184.867 102.879 184.727 103 C 184.586 103.125 184.465 103.266 184.359 103.418 L 156.207 144.598 C 155.57 145.484 154.973 146.395 154.414 147.336 C 153.855 148.273 153.34 149.238 152.867 150.223 C 152.395 151.207 151.969 152.215 151.582 153.238 C 151.199 154.262 150.859 155.297 150.566 156.352 C 150.277 157.406 150.031 158.469 149.832 159.547 C 149.633 160.621 149.48 161.703 149.375 162.793 C 149.273 163.883 149.219 164.973 149.211 166.066 C 149.203 167.16 149.242 168.254 149.332 169.344 C 149.422 170.434 149.559 171.516 149.742 172.594 C 149.926 173.672 150.156 174.742 150.434 175.797 C 150.715 176.855 151.039 177.898 151.406 178.93 C 151.777 179.957 152.191 180.969 152.652 181.957 C 153.109 182.949 153.613 183.922 154.156 184.867 C 154.703 185.816 155.289 186.734 155.914 187.633 C 156.539 188.527 157.203 189.391 157.906 190.227 C 158.605 191.066 159.344 191.867 160.117 192.641 Z M 199.742 151.867 C 199.742 151.473 199.781 151.078 199.863 150.688 C 199.945 150.301 200.066 149.922 200.227 149.559 C 200.387 149.195 200.582 148.852 200.816 148.531 C 201.047 148.207 201.309 147.914 201.602 147.645 C 201.895 147.379 202.215 147.145 202.555 146.945 C 202.898 146.742 203.258 146.582 203.633 146.457 C 204.008 146.332 204.395 146.246 204.789 146.203 C 205.18 146.16 205.574 146.156 205.969 146.195 C 208.918 146.477 211.078 149.129 211.078 152.109 L 211.078 152.844 C 211.078 153.816 210.848 154.73 210.379 155.586 C 209.914 156.438 209.273 157.125 208.453 157.648 C 208.289 157.762 208.172 157.91 208.105 158.102 C 208.039 158.289 208.035 158.48 208.094 158.672 C 208.152 158.863 208.262 159.02 208.426 159.137 C 208.586 159.258 208.766 159.316 208.965 159.313 L 211.07 159.313 C 211.375 159.313 211.672 159.344 211.969 159.402 C 212.266 159.461 212.555 159.551 212.832 159.664 C 213.113 159.781 213.379 159.926 213.629 160.094 C 213.883 160.262 214.113 160.453 214.328 160.668 C 214.539 160.883 214.73 161.117 214.898 161.367 C 215.066 161.621 215.211 161.887 215.324 162.168 C 215.441 162.449 215.527 162.738 215.586 163.035 C 215.645 163.332 215.676 163.633 215.676 163.938 L 215.676 176.207 C 215.676 176.523 215.617 176.828 215.496 177.121 C 215.375 177.414 215.203 177.672 214.98 177.895 C 214.758 178.117 214.5 178.289 214.211 178.41 C 213.922 178.531 213.617 178.594 213.301 178.594 L 212.473 178.594 L 211.863 185.379 C 210.324 187.559 208.543 189.508 206.512 191.234 C 204.48 192.961 202.27 194.406 199.875 195.574 L 199.336 189.57 C 199.691 189.418 200.02 189.219 200.316 188.973 C 200.613 188.727 200.871 188.441 201.086 188.117 C 201.301 187.793 201.465 187.445 201.574 187.074 C 201.688 186.703 201.742 186.324 201.746 185.934 L 201.746 169.012 C 201.742 168.141 201.605 167.293 201.336 166.465 C 201.063 165.637 200.672 164.875 200.156 164.176 C 199.645 163.477 199.035 162.871 198.328 162.367 C 197.621 161.863 196.855 161.48 196.027 161.223 C 196.457 160.621 197 160.152 197.656 159.813 C 198.313 159.473 199.012 159.305 199.746 159.301 L 201.855 159.301 C 202.055 159.305 202.234 159.246 202.395 159.125 C 202.559 159.008 202.668 158.852 202.727 158.66 C 202.785 158.469 202.781 158.277 202.715 158.09 C 202.648 157.898 202.531 157.75 202.367 157.637 C 201.547 157.113 200.906 156.426 200.441 155.574 C 199.973 154.719 199.742 153.805 199.742 152.832 L 199.742 151.867 Z" fill-opacity="1"/>
  </g>
  <path fill="#9bbdfc" d="M 193.78125 111.683594 L 206.074219 129.65625 C 206.808594 130.058594 207.527344 130.484375 208.238281 130.929688 C 208.945312 131.378906 209.636719 131.847656 210.316406 132.335938 C 210.996094 132.828125 211.660156 133.335938 212.308594 133.867188 C 212.957031 134.398438 213.589844 134.949219 214.207031 135.515625 C 214.820312 136.085938 215.417969 136.671875 216 137.277344 C 216.578125 137.882812 217.140625 138.507812 217.679688 139.148438 C 218.222656 139.785156 218.746094 140.441406 219.25 141.113281 C 219.75 141.785156 220.230469 142.472656 220.691406 143.171875 C 221.152344 143.875 221.59375 144.589844 222.011719 145.316406 C 222.429688 146.046875 222.824219 146.785156 223.195312 147.539062 C 223.570312 148.289062 223.917969 149.050781 224.246094 149.824219 C 224.570312 150.597656 224.875 151.382812 225.152344 152.175781 C 225.433594 152.964844 225.6875 153.765625 225.917969 154.574219 C 226.148438 155.382812 226.355469 156.195312 226.535156 157.015625 C 226.71875 157.835938 226.875 158.660156 227.007812 159.492188 C 227.136719 160.320312 227.242188 161.152344 227.324219 161.988281 C 227.40625 162.824219 227.460938 163.664062 227.492188 164.503906 C 227.523438 165.34375 227.527344 166.183594 227.507812 167.023438 C 227.488281 167.863281 227.441406 168.699219 227.371094 169.539062 C 227.296875 170.375 227.203125 171.210938 227.078125 172.039062 C 226.957031 172.871094 226.8125 173.699219 226.640625 174.519531 C 226.46875 175.34375 226.269531 176.160156 226.050781 176.96875 C 225.828125 177.78125 225.582031 178.582031 225.3125 179.378906 C 225.042969 180.171875 224.75 180.960938 224.433594 181.738281 C 224.113281 182.515625 223.773438 183.28125 223.410156 184.039062 C 223.046875 184.792969 222.660156 185.539062 222.25 186.273438 C 221.84375 187.003906 221.410156 187.722656 220.957031 188.429688 C 220.507812 189.136719 220.03125 189.828125 219.539062 190.507812 C 219.042969 191.183594 218.53125 191.847656 217.996094 192.492188 C 217.460938 193.140625 216.90625 193.769531 216.335938 194.378906 C 215.761719 194.992188 215.171875 195.585938 214.5625 196.164062 C 213.953125 196.738281 213.328125 197.296875 212.6875 197.835938 C 212.722656 197.902344 212.765625 197.964844 212.800781 198.035156 C 212.882812 198.21875 212.960938 198.398438 213.023438 198.601562 C 213.394531 198.539062 213.769531 198.507812 214.144531 198.507812 C 214.59375 198.496094 215.035156 198.542969 215.46875 198.65625 C 215.902344 198.769531 216.3125 198.9375 216.699219 199.164062 C 217.085938 199.390625 217.433594 199.667969 217.746094 199.992188 C 218.054688 200.316406 218.316406 200.675781 218.527344 201.074219 C 218.71875 201.441406 218.859375 201.828125 218.957031 202.234375 C 219.488281 202.300781 219.992188 202.445312 220.472656 202.675781 C 220.957031 202.902344 221.390625 203.203125 221.78125 203.570312 C 222.167969 203.9375 222.488281 204.355469 222.742188 204.828125 C 223 205.296875 223.175781 205.796875 223.273438 206.320312 C 225.160156 204.570312 226.917969 202.691406 228.542969 200.6875 C 230.167969 198.6875 231.644531 196.578125 232.972656 194.367188 C 234.300781 192.152344 235.46875 189.859375 236.476562 187.480469 C 237.480469 185.101562 238.316406 182.667969 238.980469 180.167969 C 239.640625 177.671875 240.125 175.144531 240.433594 172.578125 C 240.742188 170.011719 240.867188 167.4375 240.8125 164.855469 C 240.757812 162.273438 240.519531 159.707031 240.105469 157.15625 C 239.6875 154.605469 239.097656 152.097656 238.328125 149.632812 C 237.558594 147.167969 236.621094 144.769531 235.515625 142.4375 C 234.410156 140.105469 233.144531 137.863281 231.722656 135.707031 C 230.300781 133.554688 228.738281 131.515625 227.027344 129.582031 C 225.320312 127.652344 223.484375 125.851562 221.523438 124.179688 C 219.558594 122.511719 217.492188 120.988281 215.316406 119.609375 C 213.136719 118.234375 210.875 117.019531 208.527344 115.964844 C 206.179688 114.90625 203.773438 114.023438 201.300781 113.308594 C 198.828125 112.597656 196.320312 112.0625 193.773438 111.703125 Z M 193.78125 111.683594 " fill-opacity="1"/>
  <path fill="#9bbdfc" d="M 152.75 190.199219 C 151.898438 189.011719 151.113281 187.78125 150.394531 186.511719 C 149.671875 185.238281 149.019531 183.933594 148.4375 182.59375 C 147.855469 181.253906 147.34375 179.882812 146.90625 178.488281 C 146.46875 177.09375 146.101562 175.679688 145.8125 174.246094 C 145.523438 172.8125 145.308594 171.367188 145.171875 169.910156 C 145.035156 168.453125 144.976562 166.996094 144.992188 165.53125 C 145.007812 164.070312 145.101562 162.609375 145.273438 161.160156 C 145.441406 159.707031 145.6875 158.265625 146.011719 156.839844 C 146.332031 155.410156 146.730469 154.007812 147.199219 152.621094 C 147.671875 151.238281 148.210938 149.882812 148.824219 148.554688 C 149.4375 147.226562 150.121094 145.9375 150.867188 144.683594 C 151.617188 143.425781 152.429688 142.214844 153.308594 141.046875 C 154.1875 139.878906 155.121094 138.761719 156.117188 137.695312 C 157.113281 136.625 158.160156 135.613281 159.261719 134.65625 C 160.363281 133.699219 161.511719 132.804688 162.707031 131.96875 C 163.902344 131.132812 165.140625 130.367188 166.417969 129.664062 L 178.710938 111.691406 C 176.925781 111.941406 175.160156 112.28125 173.40625 112.707031 C 171.65625 113.132812 169.933594 113.648438 168.230469 114.246094 C 166.53125 114.84375 164.863281 115.523438 163.230469 116.285156 C 161.597656 117.050781 160.007812 117.890625 158.457031 118.8125 C 156.90625 119.734375 155.40625 120.730469 153.953125 121.800781 C 152.5 122.871094 151.105469 124.011719 149.765625 125.222656 C 148.425781 126.429688 147.148438 127.703125 145.933594 129.039062 C 144.71875 130.375 143.574219 131.769531 142.496094 133.21875 C 141.417969 134.671875 140.414062 136.171875 139.484375 137.71875 C 138.554688 139.269531 137.703125 140.863281 136.929688 142.496094 C 136.15625 144.132812 135.464844 145.800781 134.859375 147.503906 C 134.25 149.207031 133.726562 150.933594 133.285156 152.691406 C 132.847656 154.445312 132.496094 156.21875 132.234375 158.007812 C 131.96875 159.796875 131.792969 161.597656 131.707031 163.402344 C 131.621094 165.210938 131.621094 167.019531 131.710938 168.828125 C 131.804688 170.632812 131.984375 172.433594 132.25 174.222656 C 136.792969 180.394531 144.5625 186.601562 152.75 190.199219 Z M 152.75 190.199219 " fill-opacity="1"/>
  <path fill="#3276fc" d="M 215.484375 206.335938 C 218.261719 202.390625 215.011719 198.519531 209.5 203.4375 C 212.1875 200.222656 210.0625 196.210938 206 198.285156 C 203.257812 199.691406 202.210938 201.738281 198.070312 204.28125 C 188.582031 210.113281 177.304688 207.15625 174.34375 204.203125 C 181.539062 203.46875 185.957031 201.40625 190.039062 197.796875 C 193.328125 194.882812 192.664062 187.675781 180.226562 193.027344 C 160.765625 201.402344 140.328125 190.234375 133.320312 179.625 C 133.601562 180.722656 133.914062 181.8125 134.261719 182.890625 C 134.609375 183.96875 134.988281 185.035156 135.402344 186.089844 C 135.816406 187.144531 136.261719 188.183594 136.738281 189.210938 C 137.214844 190.238281 137.722656 191.25 138.261719 192.246094 C 138.800781 193.238281 139.371094 194.21875 139.972656 195.175781 C 140.570312 196.136719 141.199219 197.078125 141.859375 197.996094 C 142.515625 198.917969 143.203125 199.816406 143.914062 200.695312 C 144.628906 201.574219 145.367188 202.429688 146.132812 203.261719 C 146.898438 204.09375 147.691406 204.898438 148.507812 205.683594 C 149.324219 206.464844 150.160156 207.222656 151.023438 207.953125 C 151.886719 208.683594 152.769531 209.382812 153.675781 210.058594 C 154.582031 210.734375 155.507812 211.382812 156.453125 212 C 157.398438 212.617188 158.363281 213.207031 159.34375 213.761719 C 160.328125 214.320312 161.324219 214.847656 162.339844 215.34375 C 163.355469 215.839844 164.382812 216.300781 165.425781 216.734375 C 166.46875 217.164062 167.523438 217.5625 168.589844 217.929688 C 169.660156 218.296875 170.738281 218.628906 171.824219 218.925781 C 172.914062 219.226562 174.007812 219.492188 175.113281 219.722656 C 176.21875 219.953125 177.328125 220.148438 178.445312 220.308594 C 179.5625 220.472656 180.683594 220.597656 181.808594 220.6875 C 182.929688 220.78125 184.058594 220.835938 185.183594 220.859375 C 186.3125 220.882812 187.441406 220.867188 188.566406 220.820312 C 189.695312 220.769531 190.820312 220.6875 191.941406 220.566406 C 193.0625 220.449219 194.179688 220.296875 195.292969 220.109375 C 196.40625 219.921875 197.511719 219.699219 198.609375 219.441406 C 199.707031 219.183594 200.796875 218.894531 201.878906 218.570312 C 202.957031 218.242188 204.027344 217.886719 205.085938 217.496094 C 206.144531 217.101562 207.191406 216.679688 208.222656 216.222656 C 209.257812 215.765625 210.273438 215.277344 211.277344 214.757812 C 212.277344 214.238281 213.265625 213.6875 214.230469 213.109375 C 215.199219 212.527344 216.148438 211.914062 217.082031 211.277344 C 218.011719 210.636719 218.921875 209.96875 219.8125 209.269531 C 222.34375 207.109375 219.378906 202.445312 215.484375 206.335938 Z M 215.484375 206.335938 " fill-opacity="1"/>
  <g fill="#3276fc" fill-opacity="1">
    <g transform="translate(76.511528, 257.897678)">
      <g>
        <path d="M 7.125 0.09375 C 6.09375 0.03125 4.867188 0 3.453125 0 L 2.9375 0 L 2.9375 -21.515625 C 3.601562 -21.460938 4.070312 -21.4375 4.34375 -21.4375 L 5.015625 -21.4375 C 5.859375 -21.4375 6.5625 -21.476562 7.125 -21.5625 L 7.125 -12.96875 L 14.703125 -12.96875 L 14.703125 -21.515625 C 15.585938 -21.460938 16.453125 -21.4375 17.296875 -21.4375 C 18.140625 -21.4375 18.671875 -21.476562 18.890625 -21.5625 L 18.890625 0.09375 C 18.367188 0.03125 17.347656 0 15.828125 0 L 14.703125 0 L 14.703125 -9.109375 L 7.125 -9.109375 Z M 7.125 0.09375 "/>
      </g>
    </g>
  </g>
  <g fill="#3276fc" fill-opacity="1">
    <g transform="translate(99.175236, 257.897678)">
      <g>
        <path d="M 13.546875 -3.875 C 14.210938 -3.875 14.675781 -3.9375 14.9375 -4.0625 L 15 -4.046875 L 14.84375 0 L 2.765625 0 L 2.765625 -21.546875 C 3.054688 -21.523438 3.378906 -21.507812 3.734375 -21.5 L 4.859375 -21.46875 C 5.617188 -21.445312 6.4375 -21.4375 7.3125 -21.4375 C 9.769531 -21.4375 12.203125 -21.476562 14.609375 -21.5625 C 14.492188 -20.613281 14.4375 -19.347656 14.4375 -17.765625 C 14.4375 -17.597656 14.445312 -17.472656 14.46875 -17.390625 L 14.4375 -17.34375 C 13.875 -17.5 13.078125 -17.578125 12.046875 -17.578125 L 6.984375 -17.578125 L 6.984375 -13.46875 L 10.796875 -13.46875 C 11.972656 -13.46875 12.679688 -13.5 12.921875 -13.5625 L 12.96875 -9.59375 C 12.457031 -9.644531 11.789062 -9.671875 10.96875 -9.671875 L 6.984375 -9.671875 L 6.984375 -3.875 Z M 13.546875 -3.875 "/>
      </g>
    </g>
  </g>
  <g fill="#3276fc" fill-opacity="1">
    <g transform="translate(116.394589, 257.897678)">
      <g>
        <path d="M 4.328125 0.125 C 3.410156 0.0390625 2.332031 0 1.09375 0 L -0.171875 0 L 6.828125 -19.640625 C 7.140625 -20.523438 7.296875 -21.039062 7.296875 -21.1875 C 7.296875 -21.332031 7.289062 -21.421875 7.28125 -21.453125 L 7.296875 -21.484375 C 7.992188 -21.453125 8.734375 -21.4375 9.515625 -21.4375 C 10.160156 -21.4375 10.9375 -21.445312 11.84375 -21.46875 L 11.859375 -21.4375 C 11.835938 -21.382812 11.828125 -21.320312 11.828125 -21.25 C 11.828125 -21.050781 11.988281 -20.507812 12.3125 -19.625 L 19.46875 0.046875 C 19.25 0.0351562 18.992188 0.03125 18.703125 0.03125 C 18.703125 0.03125 18.425781 0.0195312 17.875 0 C 17.601562 0 17.359375 0 17.140625 0 L 14.640625 0 L 13.125 -4.640625 L 5.84375 -4.640625 Z M 11.875 -8.515625 L 9.4375 -16 L 7.078125 -8.515625 Z M 11.875 -8.515625 "/>
      </g>
    </g>
  </g>
  <g fill="#3276fc" fill-opacity="1">
    <g transform="translate(136.368342, 257.897678)">
      <g>
        <path d="M 5.90625 0 C 4.332031 0 3.285156 0.03125 2.765625 0.09375 L 2.765625 -21.53125 C 3.023438 -21.46875 3.5625 -21.4375 4.375 -21.4375 C 5.1875 -21.4375 6.128906 -21.457031 7.203125 -21.5 L 7.203125 -3.875 L 10.53125 -3.875 C 11.5 -3.875 12.273438 -3.90625 12.859375 -3.96875 C 12.785156 -1.445312 12.75 -0.140625 12.75 -0.046875 L 12.75 0.109375 C 11.695312 0.0351562 9.925781 0 7.4375 0 Z M 5.90625 0 "/>
      </g>
    </g>
  </g>
  <g fill="#3276fc" fill-opacity="1">
    <g transform="translate(150.833307, 257.897678)">
      <g>
        <path d="M 10.5 0.09375 C 9.988281 0.03125 8.664062 0 6.53125 0 L 6.015625 0 L 6.015625 -17.828125 L 2.8125 -17.828125 C 1.875 -17.828125 1.316406 -17.773438 1.140625 -17.671875 C 0.972656 -17.578125 0.835938 -17.492188 0.734375 -17.421875 L 0.6875 -17.4375 L 0.6875 -21.5625 L 0.734375 -21.609375 C 1.085938 -21.492188 2.046875 -21.4375 3.609375 -21.4375 L 13.71875 -21.4375 C 14.65625 -21.4375 15.207031 -21.484375 15.375 -21.578125 C 15.550781 -21.671875 15.691406 -21.753906 15.796875 -21.828125 L 15.84375 -21.8125 L 15.84375 -17.6875 L 15.796875 -17.640625 C 15.441406 -17.765625 14.484375 -17.828125 12.921875 -17.828125 L 10.5 -17.828125 Z M 10.5 0.09375 "/>
      </g>
    </g>
  </g>
  <g fill="#3276fc" fill-opacity="1">
    <g transform="translate(168.052658, 257.897678)">
      <g>
        <path d="M 7.125 0.09375 C 6.09375 0.03125 4.867188 0 3.453125 0 L 2.9375 0 L 2.9375 -21.515625 C 3.601562 -21.460938 4.070312 -21.4375 4.34375 -21.4375 L 5.015625 -21.4375 C 5.859375 -21.4375 6.5625 -21.476562 7.125 -21.5625 L 7.125 -12.96875 L 14.703125 -12.96875 L 14.703125 -21.515625 C 15.585938 -21.460938 16.453125 -21.4375 17.296875 -21.4375 C 18.140625 -21.4375 18.671875 -21.476562 18.890625 -21.5625 L 18.890625 0.09375 C 18.367188 0.03125 17.347656 0 15.828125 0 L 14.703125 0 L 14.703125 -9.109375 L 7.125 -9.109375 Z M 7.125 0.09375 "/>
      </g>
    </g>
  </g>
  <g fill="#3276fc" fill-opacity="1">
    <g transform="translate(190.716371, 257.897678)">
      <g>
        <path d="M 7.265625 0 C 7.410156 -0.414062 7.484375 -1.394531 7.484375 -2.9375 L 7.484375 -7.40625 C 5.617188 -11.5 4.425781 -14.050781 3.90625 -15.0625 C 3.394531 -16.082031 2.960938 -16.890625 2.609375 -17.484375 C 1.492188 -19.367188 0.816406 -20.453125 0.578125 -20.734375 C 0.347656 -21.015625 0.117188 -21.25 -0.109375 -21.4375 L 5.453125 -21.4375 C 5.566406 -21.21875 5.726562 -20.898438 5.9375 -20.484375 L 9.828125 -12.25 C 10.015625 -12.695312 10.226562 -13.203125 10.46875 -13.765625 C 12.8125 -18.796875 14 -21.351562 14.03125 -21.4375 L 19.359375 -21.4375 C 18.804688 -20.988281 18.132812 -20.0625 17.34375 -18.65625 C 17.09375 -18.238281 16.84375 -17.757812 16.59375 -17.21875 L 12.953125 -9.640625 C 12.546875 -8.722656 12.195312 -7.898438 11.90625 -7.171875 L 11.90625 -2.546875 C 11.90625 -1.472656 11.96875 -0.625 12.09375 0 Z M 7.265625 0 "/>
      </g>
    </g>
  </g>
  <g fill="#3276fc" fill-opacity="1">
    <g transform="translate(210.62569, 257.897678)">
      <g/>
    </g>
  </g>
  <g fill="#3276fc" fill-opacity="1">
    <g transform="translate(222.255725, 257.897678)">
      <g>
        <path d="M 12.375 -21.828125 C 14.382812 -21.828125 16.097656 -21.476562 17.515625 -20.78125 L 17.515625 -15.859375 L 17.484375 -15.828125 C 16.878906 -16.742188 15.613281 -17.351562 13.6875 -17.65625 C 13.113281 -17.757812 12.390625 -17.8125 11.515625 -17.8125 C 10.648438 -17.8125 9.796875 -17.644531 8.953125 -17.3125 C 8.117188 -16.988281 7.429688 -16.523438 6.890625 -15.921875 C 5.847656 -14.742188 5.328125 -13.070312 5.328125 -10.90625 C 5.328125 -8.382812 5.988281 -6.503906 7.3125 -5.265625 C 8.40625 -4.234375 9.859375 -3.71875 11.671875 -3.71875 C 13.710938 -3.71875 15.363281 -4.15625 16.625 -5.03125 C 17.09375 -5.34375 17.488281 -5.726562 17.8125 -6.1875 L 17.859375 -6.15625 L 17.859375 -1.640625 C 16.210938 -0.273438 14 0.40625 11.21875 0.40625 C 7.9375 0.40625 5.367188 -0.632812 3.515625 -2.71875 C 1.734375 -4.707031 0.84375 -7.34375 0.84375 -10.625 C 0.84375 -14.09375 1.816406 -16.828125 3.765625 -18.828125 C 5.742188 -20.828125 8.613281 -21.828125 12.375 -21.828125 Z M 12.375 -21.828125 "/>
      </g>
    </g>
  </g>
  <g fill="#3276fc" fill-opacity="1">
    <g transform="translate(242.084501, 257.897678)">
      <g>
        <path d="M 4.328125 0.125 C 3.410156 0.0390625 2.332031 0 1.09375 0 L -0.171875 0 L 6.828125 -19.640625 C 7.140625 -20.523438 7.296875 -21.039062 7.296875 -21.1875 C 7.296875 -21.332031 7.289062 -21.421875 7.28125 -21.453125 L 7.296875 -21.484375 C 7.992188 -21.453125 8.734375 -21.4375 9.515625 -21.4375 C 10.160156 -21.4375 10.9375 -21.445312 11.84375 -21.46875 L 11.859375 -21.4375 C 11.835938 -21.382812 11.828125 -21.320312 11.828125 -21.25 C 11.828125 -21.050781 11.988281 -20.507812 12.3125 -19.625 L 19.46875 0.046875 C 19.25 0.0351562 18.992188 0.03125 18.703125 0.03125 C 18.703125 0.03125 18.425781 0.0195312 17.875 0 C 17.601562 0 17.359375 0 17.140625 0 L 14.640625 0 L 13.125 -4.640625 L 5.84375 -4.640625 Z M 11.875 -8.515625 L 9.4375 -16 L 7.078125 -8.515625 Z M 11.875 -8.515625 "/>
      </g>
    </g>
  </g>
  <g fill="#3276fc" fill-opacity="1">
    <g transform="translate(262.058251, 257.897678)">
      <g>
        <path d="M 9.703125 -8.328125 C 9.378906 -8.304688 9.035156 -8.296875 8.671875 -8.296875 C 8.304688 -8.296875 7.765625 -8.320312 7.046875 -8.375 L 7.046875 0 L 2.765625 0 L 2.765625 -21.546875 C 4.273438 -21.734375 6.125 -21.828125 8.3125 -21.828125 C 11.300781 -21.828125 13.523438 -21.273438 14.984375 -20.171875 C 16.453125 -19.078125 17.1875 -17.378906 17.1875 -15.078125 C 17.1875 -13.296875 16.515625 -11.769531 15.171875 -10.5 C 14.734375 -10.09375 14.234375 -9.738281 13.671875 -9.4375 L 16.953125 -2.515625 C 17.597656 -1.085938 18.09375 -0.238281 18.4375 0.03125 L 18.359375 0.109375 C 17.316406 -0.0546875 15.675781 -0.0507812 13.4375 0.125 Z M 8.625 -18.03125 C 8.070312 -18.03125 7.546875 -18.003906 7.046875 -17.953125 L 7.046875 -11.796875 C 7.566406 -11.722656 8.179688 -11.6875 8.890625 -11.6875 C 9.597656 -11.6875 10.191406 -11.742188 10.671875 -11.859375 C 11.160156 -11.984375 11.582031 -12.175781 11.9375 -12.4375 C 12.695312 -13.007812 13.078125 -13.863281 13.078125 -15 C 13.078125 -16.132812 12.679688 -16.9375 11.890625 -17.40625 C 11.148438 -17.820312 10.0625 -18.03125 8.625 -18.03125 Z M 8.625 -18.03125 "/>
      </g>
    </g>
  </g>
  <g fill="#3276fc" fill-opacity="1">
    <g transform="translate(281.96757, 257.897678)">
      <g>
        <path d="M 13.546875 -3.875 C 14.210938 -3.875 14.675781 -3.9375 14.9375 -4.0625 L 15 -4.046875 L 14.84375 0 L 2.765625 0 L 2.765625 -21.546875 C 3.054688 -21.523438 3.378906 -21.507812 3.734375 -21.5 L 4.859375 -21.46875 C 5.617188 -21.445312 6.4375 -21.4375 7.3125 -21.4375 C 9.769531 -21.4375 12.203125 -21.476562 14.609375 -21.5625 C 14.492188 -20.613281 14.4375 -19.347656 14.4375 -17.765625 C 14.4375 -17.597656 14.445312 -17.472656 14.46875 -17.390625 L 14.4375 -17.34375 C 13.875 -17.5 13.078125 -17.578125 12.046875 -17.578125 L 6.984375 -17.578125 L 6.984375 -13.46875 L 10.796875 -13.46875 C 11.972656 -13.46875 12.679688 -13.5 12.921875 -13.5625 L 12.96875 -9.59375 C 12.457031 -9.644531 11.789062 -9.671875 10.96875 -9.671875 L 6.984375 -9.671875 L 6.984375 -3.875 Z M 13.546875 -3.875 "/>
      </g>
    </g>
  </g>
  <g fill="#9bbdfc" fill-opacity="1">
    <g transform="translate(119.130027, 277.597717)">
      <g>
        <path d="M 8.40625 -7 L 8.40625 0 L 7.703125 0 L 7.703125 -5.59375 L 4.953125 -0.890625 L 4.59375 -0.890625 L 1.84375 -5.5625 L 1.84375 0 L 1.140625 0 L 1.140625 -7 L 1.75 -7 L 4.796875 -1.8125 L 7.796875 -7 Z M 8.40625 -7 "/>
      </g>
    </g>
  </g>
  <g fill="#9bbdfc" fill-opacity="1">
    <g transform="translate(132.116255, 277.597717)">
      <g>
        <path d="M 6.09375 -0.640625 L 6.09375 0 L 1.140625 0 L 1.140625 -7 L 5.9375 -7 L 5.9375 -6.359375 L 1.875 -6.359375 L 1.875 -3.875 L 5.5 -3.875 L 5.5 -3.234375 L 1.875 -3.234375 L 1.875 -0.640625 Z M 6.09375 -0.640625 "/>
      </g>
    </g>
  </g>
  <g fill="#9bbdfc" fill-opacity="1">
    <g transform="translate(142.243612, 277.597717)">
      <g>
        <path d="M 1.140625 -7 L 3.984375 -7 C 4.722656 -7 5.375 -6.847656 5.9375 -6.546875 C 6.507812 -6.253906 6.953125 -5.84375 7.265625 -5.3125 C 7.578125 -4.78125 7.734375 -4.175781 7.734375 -3.5 C 7.734375 -2.820312 7.578125 -2.21875 7.265625 -1.6875 C 6.953125 -1.15625 6.507812 -0.738281 5.9375 -0.4375 C 5.375 -0.144531 4.722656 0 3.984375 0 L 1.140625 0 Z M 3.953125 -0.640625 C 4.566406 -0.640625 5.101562 -0.757812 5.5625 -1 C 6.019531 -1.25 6.375 -1.585938 6.625 -2.015625 C 6.882812 -2.441406 7.015625 -2.9375 7.015625 -3.5 C 7.015625 -4.0625 6.882812 -4.554688 6.625 -4.984375 C 6.375 -5.410156 6.019531 -5.742188 5.5625 -5.984375 C 5.101562 -6.234375 4.566406 -6.359375 3.953125 -6.359375 L 1.875 -6.359375 L 1.875 -0.640625 Z M 3.953125 -0.640625 "/>
      </g>
    </g>
  </g>
  <g fill="#9bbdfc" fill-opacity="1">
    <g transform="translate(153.940343, 277.597717)">
      <g>
        <path d="M 1.140625 -7 L 1.875 -7 L 1.875 0 L 1.140625 0 Z M 1.140625 -7 "/>
      </g>
    </g>
  </g>
  <g fill="#9bbdfc" fill-opacity="1">
    <g transform="translate(160.399148, 277.597717)">
      <g>
        <path d="M 4.1875 0.0625 C 3.488281 0.0625 2.859375 -0.0859375 2.296875 -0.390625 C 1.742188 -0.703125 1.304688 -1.128906 0.984375 -1.671875 C 0.671875 -2.210938 0.515625 -2.820312 0.515625 -3.5 C 0.515625 -4.175781 0.671875 -4.785156 0.984375 -5.328125 C 1.304688 -5.867188 1.75 -6.289062 2.3125 -6.59375 C 2.875 -6.90625 3.5 -7.0625 4.1875 -7.0625 C 4.707031 -7.0625 5.1875 -6.972656 5.625 -6.796875 C 6.070312 -6.628906 6.445312 -6.378906 6.75 -6.046875 L 6.28125 -5.5625 C 5.726562 -6.125 5.035156 -6.40625 4.203125 -6.40625 C 3.648438 -6.40625 3.144531 -6.273438 2.6875 -6.015625 C 2.238281 -5.765625 1.882812 -5.414062 1.625 -4.96875 C 1.375 -4.53125 1.25 -4.039062 1.25 -3.5 C 1.25 -2.957031 1.375 -2.460938 1.625 -2.015625 C 1.882812 -1.578125 2.238281 -1.226562 2.6875 -0.96875 C 3.144531 -0.71875 3.648438 -0.59375 4.203125 -0.59375 C 5.046875 -0.59375 5.738281 -0.875 6.28125 -1.4375 L 6.75 -0.96875 C 6.445312 -0.632812 6.070312 -0.378906 5.625 -0.203125 C 5.175781 -0.0234375 4.695312 0.0625 4.1875 0.0625 Z M 4.1875 0.0625 "/>
      </g>
    </g>
  </g>
  <g fill="#9bbdfc" fill-opacity="1">
    <g transform="translate(171.026302, 277.597717)">
      <g>
        <path d="M 5.53125 -1.875 L 1.625 -1.875 L 0.796875 0 L 0.015625 0 L 3.21875 -7 L 3.953125 -7 L 7.15625 0 L 6.375 0 Z M 5.265625 -2.46875 L 3.578125 -6.234375 L 1.90625 -2.46875 Z M 5.265625 -2.46875 "/>
      </g>
    </g>
  </g>
  <g fill="#9bbdfc" fill-opacity="1">
    <g transform="translate(181.633464, 277.597717)">
      <g>
        <path d="M 1.140625 -7 L 1.875 -7 L 1.875 -0.640625 L 5.796875 -0.640625 L 5.796875 0 L 1.140625 0 Z M 1.140625 -7 "/>
      </g>
    </g>
  </g>
  <g fill="#9bbdfc" fill-opacity="1">
    <g transform="translate(190.961131, 277.597717)">
      <g/>
    </g>
  </g>
  <g fill="#9bbdfc" fill-opacity="1">
    <g transform="translate(197.02009, 277.597717)">
      <g>
        <path d="M 4.1875 0.0625 C 3.488281 0.0625 2.859375 -0.0859375 2.296875 -0.390625 C 1.742188 -0.703125 1.304688 -1.128906 0.984375 -1.671875 C 0.671875 -2.210938 0.515625 -2.820312 0.515625 -3.5 C 0.515625 -4.175781 0.671875 -4.785156 0.984375 -5.328125 C 1.304688 -5.867188 1.75 -6.289062 2.3125 -6.59375 C 2.875 -6.90625 3.5 -7.0625 4.1875 -7.0625 C 4.707031 -7.0625 5.1875 -6.972656 5.625 -6.796875 C 6.070312 -6.628906 6.445312 -6.378906 6.75 -6.046875 L 6.28125 -5.5625 C 5.726562 -6.125 5.035156 -6.40625 4.203125 -6.40625 C 3.648438 -6.40625 3.144531 -6.273438 2.6875 -6.015625 C 2.238281 -5.765625 1.882812 -5.414062 1.625 -4.96875 C 1.375 -4.53125 1.25 -4.039062 1.25 -3.5 C 1.25 -2.957031 1.375 -2.460938 1.625 -2.015625 C 1.882812 -1.578125 2.238281 -1.226562 2.6875 -0.96875 C 3.144531 -0.71875 3.648438 -0.59375 4.203125 -0.59375 C 5.046875 -0.59375 5.738281 -0.875 6.28125 -1.4375 L 6.75 -0.96875 C 6.445312 -0.632812 6.070312 -0.378906 5.625 -0.203125 C 5.175781 -0.0234375 4.695312 0.0625 4.1875 0.0625 Z M 4.1875 0.0625 "/>
      </g>
    </g>
  </g>
  <g fill="#9bbdfc" fill-opacity="1">
    <g transform="translate(207.647245, 277.597717)">
      <g>
        <path d="M 6.09375 -0.640625 L 6.09375 0 L 1.140625 0 L 1.140625 -7 L 5.9375 -7 L 5.9375 -6.359375 L 1.875 -6.359375 L 1.875 -3.875 L 5.5 -3.875 L 5.5 -3.234375 L 1.875 -3.234375 L 1.875 -0.640625 Z M 6.09375 -0.640625 "/>
      </g>
    </g>
  </g>
  <g fill="#9bbdfc" fill-opacity="1">
    <g transform="translate(217.774601, 277.597717)">
      <g>
        <path d="M 6.984375 -7 L 6.984375 0 L 6.375 0 L 1.875 -5.6875 L 1.875 0 L 1.140625 0 L 1.140625 -7 L 1.75 -7 L 6.265625 -1.3125 L 6.265625 -7 Z M 6.984375 -7 "/>
      </g>
    </g>
  </g>
  <g fill="#9bbdfc" fill-opacity="1">
    <g transform="translate(229.341385, 277.597717)">
      <g>
        <path d="M 2.5 -6.359375 L 0.046875 -6.359375 L 0.046875 -7 L 5.703125 -7 L 5.703125 -6.359375 L 3.234375 -6.359375 L 3.234375 0 L 2.5 0 Z M 2.5 -6.359375 "/>
      </g>
    </g>
  </g>
  <g fill="#9bbdfc" fill-opacity="1">
    <g transform="translate(238.519111, 277.597717)">
      <g>
        <path d="M 6.09375 -0.640625 L 6.09375 0 L 1.140625 0 L 1.140625 -7 L 5.9375 -7 L 5.9375 -6.359375 L 1.875 -6.359375 L 1.875 -3.875 L 5.5 -3.875 L 5.5 -3.234375 L 1.875 -3.234375 L 1.875 -0.640625 Z M 6.09375 -0.640625 "/>
      </g>
    </g>
  </g>
  <g fill="#9bbdfc" fill-opacity="1">
    <g transform="translate(248.646468, 277.597717)">
      <g>
        <path d="M 5.921875 0 L 4.3125 -2.25 C 4.132812 -2.226562 3.953125 -2.21875 3.765625 -2.21875 L 1.875 -2.21875 L 1.875 0 L 1.140625 0 L 1.140625 -7 L 3.765625 -7 C 4.648438 -7 5.347656 -6.785156 5.859375 -6.359375 C 6.367188 -5.929688 6.625 -5.34375 6.625 -4.59375 C 6.625 -4.050781 6.484375 -3.59375 6.203125 -3.21875 C 5.929688 -2.84375 5.535156 -2.570312 5.015625 -2.40625 L 6.734375 0 Z M 3.734375 -2.84375 C 4.429688 -2.84375 4.960938 -2.992188 5.328125 -3.296875 C 5.691406 -3.609375 5.875 -4.039062 5.875 -4.59375 C 5.875 -5.164062 5.691406 -5.601562 5.328125 -5.90625 C 4.960938 -6.207031 4.429688 -6.359375 3.734375 -6.359375 L 1.875 -6.359375 L 1.875 -2.84375 Z M 3.734375 -2.84375 "/>
      </g>
    </g>
  </g>
  <path style="fill: rgb(255, 255, 255);" transform="matrix(-1.095192, 0.243377, -0.235188, -1.058343, 778.692304, 244.73971)" d="M 482.288 214.653 A 12.911 12.911 0 1 1 482.288 230.013 A 10.605 10.605 0 1 0 482.288 214.653 Z" bx:shape="crescent 492.667 222.333 12.911 287 0.792 1@14589f79"/>
  <path d="M 34.045 7.802 H 39.919 V 13.2 H 45.62 V 18.762 H 39.919 V 24.161 H 34.045 V 18.762 H 28.343 V 13.2 H 34.045 Z" style="fill: rgb(255, 255, 255);" transform="matrix(0.999958, -0.009174, 0.009174, 0.999958, 151.94952, 112.3625)" bx:shape="cross 28.343 7.802 17.277 16.359 5.562 5.874 0.5 1@bead7444"/>
</svg>